<svg xmlns="http://www.w3.org/2000/svg" width="807" height="448" viewBox="0 0 807 448"><title>enterprise-1</title><rect x="265.5" y="139" width="110" height="79" fill="#bfe2d9"/><path d="M375,139.5v78H266v-78H375m1-1H265v80H376v-80Z" fill="#159c80"/><text transform="translate(292.8 197.5)" font-size="11" fill="#159c80" font-family="Arial-BoldMT, Arial" font-weight="700">Enterprise<tspan x="10.69" y="13.2">server</tspan></text><rect x="3" y="251.5" width="212" height="59" fill="#fcf1e0"/><path d="M214.5,252v58H3.5V252h211m1-1H2.5v60h213V251Z" fill="#ef9900"/><text transform="translate(77.45 300.5)" font-size="11" fill="#ef9900" font-family="Arial-BoldMT, Arial" font-weight="700"><tspan letter-spacing="-0.02em">W</tspan><tspan x="10.18" y="0">eb server</tspan></text><rect x="3.25" y="20.5" width="800.5" height="59" fill="#d0f1f7"/><path d="M803.25,21V79H3.75V21h799.5m1-1H2.75V80h801.5V20Z" fill="#0071bc"/><rect x="3" y="368" width="102.5" height="59.5" fill="#eee7f2"/><path d="M105,368.5V427H3.5V368.5H105m1-1H2.5V428H106V367.5Z" fill="#9160a5"/><text transform="translate(15.79 414.5)" font-size="11" fill="#9160a5" font-family="Arial-BoldMT, Arial" font-weight="700">User browsers</text><rect x="438" y="141" width="110" height="79" fill="#ebf0f2"/><path d="M547.5,141.5v78h-109v-78h109m1-1h-111v80h111v-80Z" fill="#4c5054"/><text transform="translate(476.92 178.5)" font-size="11" fill="#4c5054" font-family="Arial-BoldMT, Arial" font-weight="700">Agent</text><rect x="445.5" y="189.5" width="94" height="24" fill="#f63"/><text transform="translate(456.44 204.5)" font-size="11" fill="#fff" font-family="Arial-BoldMT, Arial" font-weight="700">Burp Scanner</text><rect x="566" y="141" width="110" height="79" fill="#ebf0f2"/><path d="M675.5,141.5v78h-109v-78h109m1-1h-111v80h111v-80Z" fill="#4c5054"/><text transform="translate(604.92 178.5)" font-size="11" fill="#4c5054" font-family="Arial-BoldMT, Arial" font-weight="700">Agent</text><rect x="573.5" y="189.5" width="94" height="24" fill="#f63"/><text transform="translate(584.44 204.5)" font-size="11" fill="#fff" font-family="Arial-BoldMT, Arial" font-weight="700">Burp Scanner</text><rect x="694" y="141" width="110" height="79" fill="#ebf0f2"/><path d="M803.5,141.5v78h-109v-78h109m1-1h-111v80h111v-80Z" fill="#4c5054"/><text transform="translate(732.92 178.5)" font-size="11" fill="#4c5054" font-family="Arial-BoldMT, Arial" font-weight="700">Agent</text><rect x="701.5" y="189.5" width="94" height="24" fill="#f63"/><text transform="translate(712.44 204.5)" font-size="11" fill="#fff" font-family="Arial-BoldMT, Arial" font-weight="700">Burp Scanner</text><text transform="translate(112.79 173.5)" font-size="11" fill="#0071bc" font-family="Arial-BoldMT, Arial" font-weight="700">SQ<tspan x="15.89" y="0" letter-spacing="-0.02em">L</tspan></text><text transform="translate(326.79 115.5)" font-size="11" fill="#0071bc" font-family="Arial-BoldMT, Arial" font-weight="700">SQ<tspan x="15.89" y="0" letter-spacing="-0.02em">L</tspan></text><text transform="translate(113.33 343.5)" font-size="11" fill="#9160a5" font-family="Arial-BoldMT, Arial" font-weight="700">REST</text><path d="M490.46,158.34a1.58,1.58,0,1,0-1.58,1.61A1.6,1.6,0,0,0,490.46,158.34Zm-2.36,0a.78.78,0,1,1,.78.81A.79.79,0,0,1,488.1,158.34Z" fill="#4c5054"/><path d="M494.46,156.73a1.61,1.61,0,1,0,1.58,1.61A1.6,1.6,0,0,0,494.46,156.73Zm0,2.42a.81.81,0,1,1,.78-.81A.79.79,0,0,1,494.46,159.15Z" fill="#4c5054"/><path d="M501.5,156.13h-2.31v-3H492v-.77l1.43-2.13H492v-1h-.81l.74-1.08V146.5h-.8v1.41L489.62,150h1.53v1h.73l-.73,1.09v1h-7.34v3H481.5v7.41h2.31v3h15.38v-3h2.31Zm-19.2,6.61v-5.81h1.51v5.81Zm16.09,3H484.61V154h13.78V165.7Zm2.31-3h-1.51v-5.81h1.51Z" fill="#4c5054"/><rect x="488.58" y="161.88" width="6.17" height="0.8" fill="#4c5054"/><text transform="translate(379.04 67.98)" font-size="11" fill="#0071bc" font-family="Arial-BoldMT, Arial" font-weight="700">Database</text><polygon points="109.27 169.88 109.27 88.32 112.16 88.32 108.88 82.63 105.59 88.32 108.48 88.32 108.48 169.88 109.27 169.88" fill="#1d81c4"/><polygon points="108.48 164.63 108.48 246.18 105.59 246.18 108.88 251.88 112.16 246.18 109.27 246.18 109.27 164.63 108.48 164.63" fill="#1d81c4"/><polygon points="321.27 110.94 321.27 87.32 324.16 87.32 320.88 81.63 317.59 87.32 320.48 87.32 320.48 110.94 321.27 110.94" fill="#1d81c4"/><polygon points="320.48 109.18 320.48 132.8 317.59 132.8 320.88 138.5 324.16 132.8 321.27 132.8 321.27 109.18 320.48 109.18" fill="#1d81c4"/><polygon points="160.13 178.5 160.13 245.8 157.24 245.8 160.53 251.5 163.82 245.8 160.93 245.8 160.93 178.5 160.13 178.5" fill="#606467"/><polygon points="160.5 178.9 259.31 178.49 259.32 181.38 265 178.07 259.29 174.81 259.3 177.7 160.5 178.1 160.5 178.9" fill="#606467"/><text transform="translate(499.29 114.5)" font-size="11" fill="#0071bc" font-family="Arial-BoldMT, Arial" font-weight="700">SQ<tspan x="15.89" y="0" letter-spacing="-0.02em">L</tspan></text><polygon points="492.77 110.94 492.77 87.32 495.66 87.32 492.38 81.63 489.09 87.32 491.98 87.32 491.98 110.94 492.77 110.94" fill="#1d81c4"/><polygon points="491.98 109.18 491.98 132.8 489.09 132.8 492.38 138.5 495.66 132.8 492.77 132.8 492.77 109.18 491.98 109.18" fill="#1d81c4"/><text transform="translate(627.29 114.5)" font-size="11" fill="#0071bc" font-family="Arial-BoldMT, Arial" font-weight="700">SQ<tspan x="15.89" y="0" letter-spacing="-0.02em">L</tspan></text><polygon points="620.77 110.94 620.77 87.32 623.66 87.32 620.38 81.63 617.09 87.32 619.98 87.32 619.98 110.94 620.77 110.94" fill="#1d81c4"/><polygon points="619.98 109.18 619.98 132.8 617.09 132.8 620.38 138.5 623.66 132.8 620.77 132.8 620.77 109.18 619.98 109.18" fill="#1d81c4"/><text transform="translate(754.29 114.5)" font-size="11" fill="#0071bc" font-family="Arial-BoldMT, Arial" font-weight="700">SQ<tspan x="15.89" y="0" letter-spacing="-0.02em">L</tspan></text><polygon points="747.77 110.94 747.77 87.32 750.66 87.32 747.38 81.63 744.09 87.32 746.98 87.32 746.98 110.94 747.77 110.94" fill="#1d81c4"/><polygon points="746.98 109.18 746.98 132.8 744.09 132.8 747.38 138.5 750.66 132.8 747.77 132.8 747.77 109.18 746.98 109.18" fill="#1d81c4"/><path d="M620.46,158.34a1.58,1.58,0,1,0-1.58,1.61A1.6,1.6,0,0,0,620.46,158.34Zm-2.36,0a.78.78,0,1,1,.78.81A.79.79,0,0,1,618.1,158.34Z" fill="#4c5054"/><path d="M624.46,156.73a1.61,1.61,0,1,0,1.58,1.61A1.6,1.6,0,0,0,624.46,156.73Zm0,2.42a.81.81,0,1,1,.78-.81A.79.79,0,0,1,624.46,159.15Z" fill="#4c5054"/><path d="M631.5,156.13h-2.31v-3H622v-.77l1.43-2.13H622v-1h-.81l.74-1.08V146.5h-.8v1.41L619.62,150h1.53v1h.73l-.73,1.09v1h-7.34v3H611.5v7.41h2.31v3h15.38v-3h2.31Zm-19.2,6.61v-5.81h1.51v5.81Zm16.09,3H614.61V154h13.78V165.7Zm2.31-3h-1.51v-5.81h1.51Z" fill="#4c5054"/><rect x="618.58" y="161.88" width="6.17" height="0.8" fill="#4c5054"/><path d="M747.46,158.34a1.58,1.58,0,1,0-1.58,1.61A1.6,1.6,0,0,0,747.46,158.34Zm-2.36,0a.78.78,0,1,1,.78.81A.79.79,0,0,1,745.1,158.34Z" fill="#4c5054"/><path d="M751.46,156.73a1.61,1.61,0,1,0,1.58,1.61A1.6,1.6,0,0,0,751.46,156.73Zm0,2.42a.81.81,0,1,1,.78-.81A.79.79,0,0,1,751.46,159.15Z" fill="#4c5054"/><path d="M758.5,156.13h-2.31v-3H749v-.77l1.43-2.13H749v-1h-.81l.74-1.08V146.5h-.8v1.41L746.62,150h1.53v1h.73l-.73,1.09v1h-7.34v3H738.5v7.41h2.31v3h15.38v-3h2.31Zm-19.2,6.61v-5.81h1.51v5.81Zm16.09,3H741.61V154h13.78V165.7Zm2.31-3h-1.51v-5.81h1.51Z" fill="#4c5054"/><rect x="745.58" y="161.88" width="6.17" height="0.8" fill="#4c5054"/><polygon points="405.8 178.46 431.8 178.46 431.8 181.35 437.5 178.06 431.8 174.77 431.8 177.67 405.8 177.67 405.8 178.46" fill="#606467"/><polygon points="407.7 177.67 381.7 177.67 381.7 174.77 376 178.06 381.7 181.35 381.7 178.46 407.7 178.46 407.7 177.67" fill="#606467"/><rect x="302.29" y="146.05" width="17.48" height="37.14" fill="#159c80" stroke="#159c80" stroke-miterlimit="10" stroke-width="0.5"/><line x1="302.29" y1="158.21" x2="319.77" y2="158.22" fill="none" stroke="#fff" stroke-miterlimit="10" stroke-width="0.5"/><line x1="302.29" y1="161.98" x2="319.77" y2="161.99" fill="none" stroke="#fff" stroke-miterlimit="10" stroke-width="0.5"/><line x1="302.3" y1="154.32" x2="319.77" y2="154.33" fill="none" stroke="#fff" stroke-miterlimit="10" stroke-width="0.5"/><line x1="302.28" y1="173.69" x2="319.76" y2="173.7" fill="none" stroke="#fff" stroke-miterlimit="10" stroke-width="0.5"/><line x1="302.28" y1="177.4" x2="319.76" y2="177.41" fill="none" stroke="#fff" stroke-miterlimit="10" stroke-width="0.5"/><line x1="302.29" y1="165.91" x2="319.76" y2="165.92" fill="none" stroke="#fff" stroke-miterlimit="10" stroke-width="0.5"/><line x1="302.29" y1="169.87" x2="319.76" y2="169.88" fill="none" stroke="#fff" stroke-miterlimit="10" stroke-width="0.5"/><circle cx="304.15" cy="175.69" r="0.53" fill="#fff"/><circle cx="306.11" cy="175.69" r="0.53" fill="#fff"/><circle cx="308.07" cy="175.69" r="0.53" fill="#fff"/><circle cx="310.03" cy="175.69" r="0.53" fill="#fff"/><circle cx="311.98" cy="175.69" r="0.53" fill="#fff"/><circle cx="313.94" cy="175.69" r="0.53" fill="#fff"/><circle cx="315.9" cy="175.7" r="0.53" fill="#fff"/><circle cx="317.86" cy="175.7" r="0.53" fill="#fff"/><circle cx="304.15" cy="171.77" r="0.53" fill="#fff"/><circle cx="306.11" cy="171.77" r="0.53" fill="#fff"/><circle cx="308.07" cy="171.78" r="0.53" fill="#fff"/><circle cx="310.03" cy="171.78" r="0.53" fill="#fff"/><circle cx="311.99" cy="171.78" r="0.53" fill="#fff"/><circle cx="313.94" cy="171.78" r="0.53" fill="#fff"/><circle cx="315.9" cy="171.78" r="0.53" fill="#fff"/><circle cx="317.86" cy="171.78" r="0.53" fill="#fff"/><circle cx="304.16" cy="167.86" r="0.53" fill="#fff"/><circle cx="306.11" cy="167.86" r="0.53" fill="#fff"/><circle cx="308.07" cy="167.86" r="0.53" fill="#fff"/><circle cx="310.03" cy="167.86" r="0.53" fill="#fff"/><circle cx="311.99" cy="167.86" r="0.53" fill="#fff"/><circle cx="313.95" cy="167.86" r="0.53" fill="#fff"/><circle cx="315.9" cy="167.86" r="0.53" fill="#fff"/><circle cx="317.86" cy="167.87" r="0.53" fill="#fff"/><circle cx="304.16" cy="163.94" r="0.53" fill="#fff"/><circle cx="306.12" cy="163.94" r="0.53" fill="#fff"/><circle cx="308.07" cy="163.94" r="0.53" fill="#fff"/><circle cx="310.03" cy="163.94" r="0.53" fill="#fff"/><circle cx="311.99" cy="163.95" r="0.53" fill="#fff"/><circle cx="313.95" cy="163.95" r="0.53" fill="#fff"/><circle cx="315.91" cy="163.95" r="0.53" fill="#fff"/><circle cx="317.86" cy="163.95" r="0.53" fill="#fff"/><circle cx="304.16" cy="160.03" r="0.53" fill="#fff"/><circle cx="306.12" cy="160.03" r="0.53" fill="#fff"/><circle cx="308.08" cy="160.03" r="0.53" fill="#fff"/><circle cx="310.03" cy="160.03" r="0.53" fill="#fff"/><circle cx="311.99" cy="160.03" r="0.53" fill="#fff"/><circle cx="313.95" cy="160.03" r="0.53" fill="#fff"/><circle cx="315.91" cy="160.03" r="0.53" fill="#fff"/><circle cx="317.87" cy="160.03" r="0.53" fill="#fff"/><circle cx="304.16" cy="156.11" r="0.53" fill="#fff"/><circle cx="306.12" cy="156.11" r="0.53" fill="#fff"/><circle cx="308.08" cy="156.11" r="0.53" fill="#fff"/><circle cx="310.04" cy="156.11" r="0.53" fill="#fff"/><circle cx="312" cy="156.11" r="0.53" fill="#fff"/><circle cx="313.95" cy="156.12" r="0.53" fill="#fff"/><circle cx="315.91" cy="156.12" r="0.53" fill="#fff"/><circle cx="317.87" cy="156.12" r="0.53" fill="#fff"/><circle cx="304.17" cy="152.19" r="0.53" fill="#fff"/><circle cx="306.12" cy="152.19" r="0.53" fill="#fff"/><circle cx="308.08" cy="152.2" r="0.53" fill="#fff"/><circle cx="310.04" cy="152.2" r="0.53" fill="#fff"/><circle cx="312" cy="152.2" r="0.53" fill="#fff"/><circle cx="313.96" cy="152.2" r="0.53" fill="#fff"/><circle cx="315.91" cy="152.2" r="0.53" fill="#fff"/><circle cx="317.87" cy="152.2" r="0.53" fill="#fff"/><line x1="302.3" y1="150.03" x2="319.77" y2="150.04" fill="none" stroke="#fff" stroke-miterlimit="10" stroke-width="0.5"/><rect x="321.5" y="146.07" width="17.48" height="37.14" fill="#159c80" stroke="#159c80" stroke-miterlimit="10" stroke-width="0.5"/><line x1="321.51" y1="158.22" x2="338.98" y2="158.23" fill="none" stroke="#fff" stroke-miterlimit="10" stroke-width="0.5"/><line x1="321.5" y1="161.99" x2="338.98" y2="162" fill="none" stroke="#fff" stroke-miterlimit="10" stroke-width="0.5"/><line x1="321.51" y1="154.33" x2="338.98" y2="154.34" fill="none" stroke="#fff" stroke-miterlimit="10" stroke-width="0.5"/><line x1="321.5" y1="173.7" x2="338.97" y2="173.71" fill="none" stroke="#fff" stroke-miterlimit="10" stroke-width="0.5"/><line x1="321.5" y1="177.41" x2="338.97" y2="177.42" fill="none" stroke="#fff" stroke-miterlimit="10" stroke-width="0.5"/><line x1="321.5" y1="165.92" x2="338.98" y2="165.93" fill="none" stroke="#fff" stroke-miterlimit="10" stroke-width="0.5"/><line x1="321.5" y1="169.88" x2="338.98" y2="169.89" fill="none" stroke="#fff" stroke-miterlimit="10" stroke-width="0.5"/><circle cx="323.37" cy="175.7" r="0.53" fill="#fff"/><circle cx="325.32" cy="175.7" r="0.53" fill="#fff"/><circle cx="327.28" cy="175.7" r="0.53" fill="#fff"/><circle cx="329.24" cy="175.7" r="0.53" fill="#fff"/><circle cx="331.2" cy="175.7" r="0.53" fill="#fff"/><circle cx="333.16" cy="175.71" r="0.53" fill="#fff"/><circle cx="335.11" cy="175.71" r="0.53" fill="#fff"/><circle cx="337.07" cy="175.71" r="0.53" fill="#fff"/><circle cx="323.37" cy="171.78" r="0.53" fill="#fff"/><circle cx="325.33" cy="171.79" r="0.53" fill="#fff"/><circle cx="327.28" cy="171.79" r="0.53" fill="#fff"/><circle cx="329.24" cy="171.79" r="0.53" fill="#fff"/><circle cx="331.2" cy="171.79" r="0.53" fill="#fff"/><circle cx="333.16" cy="171.79" r="0.53" fill="#fff"/><circle cx="335.12" cy="171.79" r="0.53" fill="#fff"/><circle cx="337.07" cy="171.79" r="0.53" fill="#fff"/><circle cx="323.37" cy="167.87" r="0.53" fill="#fff"/><circle cx="325.33" cy="167.87" r="0.53" fill="#fff"/><circle cx="327.29" cy="167.87" r="0.53" fill="#fff"/><circle cx="329.24" cy="167.87" r="0.53" fill="#fff"/><circle cx="331.2" cy="167.87" r="0.53" fill="#fff"/><circle cx="333.16" cy="167.87" r="0.53" fill="#fff"/><circle cx="335.12" cy="167.87" r="0.53" fill="#fff"/><circle cx="337.08" cy="167.88" r="0.53" fill="#fff"/><circle cx="323.37" cy="163.95" r="0.53" fill="#fff"/><circle cx="325.33" cy="163.95" r="0.53" fill="#fff"/><circle cx="327.29" cy="163.95" r="0.53" fill="#fff"/><circle cx="329.25" cy="163.96" r="0.53" fill="#fff"/><circle cx="331.2" cy="163.96" r="0.53" fill="#fff"/><circle cx="333.16" cy="163.96" r="0.53" fill="#fff"/><circle cx="335.12" cy="163.96" r="0.53" fill="#fff"/><circle cx="337.08" cy="163.96" r="0.53" fill="#fff"/><circle cx="323.37" cy="160.04" r="0.53" fill="#fff"/><circle cx="325.33" cy="160.04" r="0.53" fill="#fff"/><circle cx="327.29" cy="160.04" r="0.53" fill="#fff"/><circle cx="329.25" cy="160.04" r="0.53" fill="#fff"/><circle cx="331.21" cy="160.04" r="0.53" fill="#fff"/><circle cx="333.16" cy="160.04" r="0.53" fill="#fff"/><circle cx="335.12" cy="160.04" r="0.53" fill="#fff"/><circle cx="337.08" cy="160.04" r="0.53" fill="#fff"/><circle cx="323.38" cy="156.12" r="0.53" fill="#fff"/><circle cx="325.33" cy="156.12" r="0.53" fill="#fff"/><circle cx="327.29" cy="156.12" r="0.53" fill="#fff"/><circle cx="329.25" cy="156.12" r="0.53" fill="#fff"/><circle cx="331.21" cy="156.12" r="0.53" fill="#fff"/><circle cx="333.17" cy="156.13" r="0.53" fill="#fff"/><circle cx="335.12" cy="156.13" r="0.53" fill="#fff"/><circle cx="337.08" cy="156.13" r="0.53" fill="#fff"/><circle cx="323.38" cy="152.2" r="0.53" fill="#fff"/><circle cx="325.34" cy="152.21" r="0.53" fill="#fff"/><circle cx="327.29" cy="152.21" r="0.53" fill="#fff"/><circle cx="329.25" cy="152.21" r="0.53" fill="#fff"/><circle cx="331.21" cy="152.21" r="0.53" fill="#fff"/><circle cx="333.17" cy="152.21" r="0.53" fill="#fff"/><circle cx="335.13" cy="152.21" r="0.53" fill="#fff"/><circle cx="337.08" cy="152.21" r="0.53" fill="#fff"/><line x1="321.51" y1="150.04" x2="338.99" y2="150.05" fill="none" stroke="#fff" stroke-miterlimit="10" stroke-width="0.5"/><path d="M107.18,260a12.5,12.5,0,1,0,0,25h0a12.5,12.5,0,0,0,0-25Zm9,4.74a6.23,6.23,0,0,1-1.72,1.66,8.5,8.5,0,0,1-1.57.85,16.52,16.52,0,0,0-1.93-3.93,15.84,15.84,0,0,0-2.12-2.59,11.78,11.78,0,0,1,6.75,3.37C115.79,264.31,116,264.52,116.18,264.74Zm-8.37,19.63-.33,0v-7.66a15.23,15.23,0,0,1,4.84.81,16.72,16.72,0,0,1-1.86,3.79A14.36,14.36,0,0,1,107.81,284.37ZM102,277.53a14.79,14.79,0,0,1,4.84-.8v7.66l-.33,0A16,16,0,0,1,102,277.53Zm4.51-16.9h.34v7.65a15.1,15.1,0,0,1-4.83-.8,16,16,0,0,1,1.86-3.8A14.76,14.76,0,0,1,106.54,260.63Zm5.78,6.84a15.15,15.15,0,0,1-4.84.8v-7.65h.33A16.05,16.05,0,0,1,112.32,267.47Zm-4.84,1.42a15.68,15.68,0,0,0,5-.82,15.77,15.77,0,0,1,.63,4.13h-5.66Zm-.61,0v3.31h-5.65a15.3,15.3,0,0,1,.63-4.13A15.82,15.82,0,0,0,106.87,268.89Zm-6.27,3.3H95.29a11.8,11.8,0,0,1,2.48-7,8.23,8.23,0,0,0,3.51,2.61A15.93,15.93,0,0,0,100.6,272.19Zm0,.61a16.48,16.48,0,0,0,.67,4.36,8.07,8.07,0,0,0-3.51,2.61,11.84,11.84,0,0,1-2.47-7Zm.61,0h5.66v3.31a15.68,15.68,0,0,0-5,.82A15.91,15.91,0,0,1,101.21,272.8Zm6.27,3.32v-3.31h5.66a15.62,15.62,0,0,1-.64,4.13A15.57,15.57,0,0,0,107.48,276.12Zm6.27-3.31h5.31a11.83,11.83,0,0,1-2.48,7,8,8,0,0,0-3.5-2.62A16.34,16.34,0,0,0,113.75,272.81Zm0-.61a16.48,16.48,0,0,0-.67-4.36,8.15,8.15,0,0,0,3.51-2.6,11.79,11.79,0,0,1,2.47,7Zm-15-8.11a11.82,11.82,0,0,1,6.76-3.36,16.33,16.33,0,0,0-2.13,2.59,17,17,0,0,0-1.94,3.92,8.75,8.75,0,0,1-1.56-.85,6.23,6.23,0,0,1-1.72-1.66C98.37,264.51,98.57,264.3,98.77,264.09Zm-.6,16.17a7.43,7.43,0,0,1,3.29-2.5,17,17,0,0,0,1.93,3.92,16.38,16.38,0,0,0,2.12,2.59,11.75,11.75,0,0,1-6.74-3.37C98.56,280.7,98.36,280.48,98.17,280.26Zm17.41.65a11.81,11.81,0,0,1-6.75,3.37,17,17,0,0,0,4.06-6.52,9.2,9.2,0,0,1,1.57.85,6.3,6.3,0,0,1,1.71,1.66C116,280.49,115.79,280.71,115.58,280.91Z" fill="#ffaf10"/><polygon points="109.27 339.94 109.27 316.32 112.16 316.32 108.88 310.63 105.59 316.32 108.48 316.32 108.48 339.94 109.27 339.94" fill="#9d72af"/><polygon points="108.48 338.18 108.48 361.8 105.59 361.8 108.88 367.5 112.16 361.8 109.27 361.8 109.27 338.18 108.48 338.18" fill="#9d72af"/><rect x="113.5" y="368" width="105.5" height="59.5" fill="#eee7f2"/><path d="M218.5,368.5V427H114V368.5H218.5m1-1H113V428H219.5V367.5Z" fill="#9160a5"/><text transform="translate(140.88 414.5)" font-size="11" fill="#9160a5" font-family="Arial-BoldMT, Arial" font-weight="700">API clients</text><path d="M414.62,48.83c0,2.23,0,1-.07,2.52,0,1.74-5,3.15-11.08,3.15s-11.09-1.41-11.09-3.15c0-.76.07-1.87.07-2.52" fill="#d0f1f7"/><path d="M403.46,54.74c-5.57,0-11.32-1.27-11.32-3.39,0-.4,0-.9,0-1.37s0-.84,0-1.15h.47c0,.32,0,.73,0,1.17s0,1,0,1.35c0,1.4,4.36,2.91,10.85,2.91s10.82-1.51,10.85-2.92c0-.63,0-.79,0-.92s0-.3,0-1.59h.48c0,.55,0,1.09,0,1.63,0,.13,0,.28,0,.89C414.75,53,410.77,54.74,403.46,54.74Z" fill="#0071bc"/><ellipse cx="403.5" cy="48.83" rx="11.09" ry="3.15" fill="#d0f1f7"/><path d="M403.5,52.22c-5.57,0-11.33-1.26-11.33-3.39s5.76-3.38,11.33-3.38,11.33,1.26,11.33,3.38S409.07,52.22,403.5,52.22Zm0-6.3c-6.49,0-10.85,1.51-10.85,2.91s4.36,2.92,10.85,2.92,10.85-1.51,10.85-2.92S410,45.92,403.5,45.92Z" fill="#0071bc"/><path d="M414.62,43.78c0,2.23,0,1-.07,2.51,0,1.74-5,3.15-11.08,3.15S392.38,48,392.38,46.29c0-.75.07-1.86.07-2.51" fill="#d0f1f7"/><path d="M403.46,49.68c-5.57,0-11.32-1.27-11.32-3.39,0-.39,0-.89,0-1.36s0-.85,0-1.15h.47c0,.31,0,.73,0,1.17s0,.95,0,1.34c0,1.41,4.36,2.92,10.85,2.92s10.82-1.51,10.85-2.92c0-.63,0-.79,0-.92s0-.3,0-1.59h.48c0,.55,0,1.09,0,1.63,0,.12,0,.28,0,.89C414.75,48,410.77,49.68,403.46,49.68Z" fill="#0071bc"/><ellipse cx="403.5" cy="43.78" rx="11.09" ry="3.15" fill="#d0f1f7"/><path d="M403.5,47.17c-5.57,0-11.33-1.27-11.33-3.39s5.76-3.38,11.33-3.38,11.33,1.26,11.33,3.38S409.07,47.17,403.5,47.17Zm0-6.3c-6.49,0-10.85,1.51-10.85,2.91s4.36,2.91,10.85,2.91,10.85-1.5,10.85-2.91S410,40.87,403.5,40.87Z" fill="#0071bc"/><path d="M414.62,38.57c0,2.23,0,1-.07,2.51,0,1.74-5,3.15-11.08,3.15s-11.09-1.41-11.09-3.15c0-.76.07-1.87.07-2.51" fill="#d0f1f7"/><path d="M403.46,44.47c-5.57,0-11.32-1.27-11.32-3.39,0-.4,0-.89,0-1.36s0-.85,0-1.15h.47c0,.31,0,.72,0,1.17s0,.95,0,1.34c0,1.41,4.36,2.91,10.85,2.91s10.82-1.5,10.85-2.91c0-.63,0-.79,0-.92s0-.3,0-1.59h.48c0,.55,0,1.09,0,1.63,0,.12,0,.27,0,.89C414.75,42.73,410.77,44.47,403.46,44.47Z" fill="#0071bc"/><ellipse cx="403.5" cy="38.57" rx="11.09" ry="3.15" fill="#d0f1f7"/><path d="M403.5,42c-5.57,0-11.33-1.27-11.33-3.39s5.76-3.39,11.33-3.39,11.33,1.27,11.33,3.39S409.07,42,403.5,42Zm0-6.3c-6.49,0-10.85,1.51-10.85,2.91s4.36,2.91,10.85,2.91,10.85-1.5,10.85-2.91S410,35.66,403.5,35.66Z" fill="#0071bc"/><path d="M414.62,33.11c0,2.23,0,1-.07,2.52,0,1.73-5,3.14-11.08,3.14s-11.09-1.4-11.09-3.14c0-.76.07-1.87.07-2.52" fill="#d0f1f7"/><path d="M403.46,39c-5.57,0-11.32-1.26-11.32-3.38,0-.4,0-.9,0-1.37s0-.84,0-1.15h.47c0,.31,0,.72,0,1.17s0,.95,0,1.35c0,1.4,4.36,2.91,10.85,2.91s10.82-1.51,10.85-2.92c0-.63,0-.78,0-.92s0-.3,0-1.59h.48c0,.55,0,1.09,0,1.63,0,.13,0,.28,0,.89C414.75,37.27,410.77,39,403.46,39Z" fill="#0071bc"/><ellipse cx="403.5" cy="33.11" rx="11.09" ry="3.15" fill="#d0f1f7"/><path d="M403.5,36.51c-5.57,0-11.33-1.27-11.33-3.39s5.76-3.38,11.33-3.38,11.33,1.26,11.33,3.38S409.07,36.51,403.5,36.51Zm0-6.3c-6.49,0-10.85,1.51-10.85,2.91S397,36,403.5,36s10.85-1.5,10.85-2.91S410,30.2,403.5,30.2Z" fill="#0071bc"/><path d="M55.86,387a5,5,0,1,0-4.62,0c-3.29,1.18-5.69,4.81-5.69,9.1a10.89,10.89,0,0,0,.43,3l.1.36H61l.1-.36a10.89,10.89,0,0,0,.43-3C61.55,391.81,59.15,388.18,55.86,387Zm-6.31-4.4a4,4,0,1,1,4,4A4,4,0,0,1,49.55,382.6Zm10.71,15.9H46.84a10.3,10.3,0,0,1-.29-2.4c0-4.69,3.14-8.5,7-8.5s7,3.81,7,8.5A10.3,10.3,0,0,1,60.26,398.5Z" fill="#9160a5"/><path d="M173.68,388.32v-3.63h-1.75a4.76,4.76,0,0,0-.28-.71l1.22-1.23-2.56-2.57-1.22,1.22a5,5,0,0,0-.72-.3v-1.72h-3.63v1.72a4.66,4.66,0,0,0-.73.3l-1.21-1.22-2.57,2.57,1.23,1.23a4.06,4.06,0,0,0-.29.71h-1.74v3.63h1.76a4.19,4.19,0,0,0,.29.69l-1.25,1.25,2.57,2.57,1.25-1.26a5.24,5.24,0,0,0,.69.28v1.78h3.63v-1.78a5.72,5.72,0,0,0,.68-.28l1.26,1.26,2.56-2.57L171.63,389a5.28,5.28,0,0,0,.29-.69Zm-2.31-.73-.07.26a5.41,5.41,0,0,1-.44,1l-.14.24,1.12,1.12-1.53,1.53-1.13-1.12-.24.13a5.05,5.05,0,0,1-1,.43l-.27.07v1.6h-2.16v-1.6l-.27-.07a5.05,5.05,0,0,1-1-.43l-.24-.13-1.12,1.12-1.53-1.53,1.11-1.12-.13-.24a4.41,4.41,0,0,1-.44-1l-.08-.26h-1.57v-2.17h1.56l.07-.27a5.32,5.32,0,0,1,.43-1.07l.14-.24-1.09-1.09,1.53-1.53,1.08,1.09.24-.14a5.13,5.13,0,0,1,1.08-.45l.27-.07v-1.54h2.16v1.54l.27.07a5.13,5.13,0,0,1,1.08.45l.24.14,1.09-1.09,1.53,1.53-1.1,1.09.14.24a5.32,5.32,0,0,1,.43,1.07l.07.27h1.56v2.17Z" fill="#9160a5"/><path d="M166.55,383.72a2.78,2.78,0,1,0,2.78,2.78A2.79,2.79,0,0,0,166.55,383.72Zm0,4.83a2,2,0,1,1,2-2.05A2.05,2.05,0,0,1,166.55,388.55Z" fill="#9160a5"/><path d="M182.94,386.17a6.07,6.07,0,0,0-4.09-1.64c-.34-2.94-2.62-5.92-5.74-5.92h-.83c-.61-3-3.38-4.11-5.86-4.11a5.67,5.67,0,0,0-5.66,4.58h-1a6.32,6.32,0,0,0-5.91,5.66,6.3,6.3,0,0,0-3.88,1.95,5.37,5.37,0,0,0-1.6,3.92,6,6,0,0,0,5.75,5.89h24.54a6,6,0,0,0,4.18-1.87,6.27,6.27,0,0,0,1.9-4.37A5.7,5.7,0,0,0,182.94,386.17Zm-.79,7.79a5.09,5.09,0,0,1-3.52,1.6H154.09a5,5,0,0,1-4.81-5,4.41,4.41,0,0,1,1.34-3.23,5.23,5.23,0,0,1,3.67-1.67h.49l0-.5a4.91,4.91,0,0,1,1.45-3.49,5.08,5.08,0,0,1,3.52-1.66h1.86l0-.42a4.68,4.68,0,0,1,4.78-4.16c1.06,0,4.55.27,5,3.7l.05.41h1.65c2.7,0,4.72,2.89,4.83,5.48l0,.47.47,0a5.21,5.21,0,0,1,3.86,1.37,4.75,4.75,0,0,1,1.48,3.41A5.33,5.33,0,0,1,182.15,394Z" fill="#9160a5"/></svg>