<svg xmlns="http://www.w3.org/2000/svg" width="807" height="716" viewBox="0 0 807 716"><title>enterprise-4</title><path d="M275.74,61.62c-.9,0-1.28-.38-1.28-1.28V39.75c0-.9.38-1.28,1.28-1.28h6.81c2.25,0,4.79,2,4.79,5.69a6.16,6.16,0,0,1-2,4.62c1.84,1.49,2.78,2.81,2.78,6,0,4.55-3.26,6.84-6,6.84ZM277,47.53h5.35c1.39,0,2.46-1.22,2.46-3.37S283.86,41,282.34,41H277Zm0,11.56h5.35c1.49,0,3.33-1.22,3.33-4.31a4.47,4.47,0,0,0-1-3.33,2.75,2.75,0,0,0-2.32-1.39H277Z" fill="#f63"/><path d="M303.68,54.92a6.93,6.93,0,0,1-13.85,0V39.86a1.29,1.29,0,1,1,2.54,0V55a4.7,4.7,0,0,0,1.8,3.33,3.48,3.48,0,0,0,2.57.83,3.59,3.59,0,0,0,2.61-.83,4.63,4.63,0,0,0,1.8-3.33V39.86a1.38,1.38,0,0,1,1.25-1.5,1.42,1.42,0,0,1,1.28,1.5Z" fill="#f63"/><path d="M313.71,38.47c4.07,0,6.57,2.6,6.57,6.84,0,2.36-.46,4.13-1.6,5.31a5.54,5.54,0,0,1-3.23,1.63l4.06,7.32a1.31,1.31,0,0,1,.24.91,1.32,1.32,0,0,1-1,1.14c-.55,0-1,0-1.39-.69l-4.75-8.58h-4v8c0,.9-.35,1.28-1.25,1.28s-1.28-.38-1.28-1.28V39.75c0-.9.38-1.28,1.28-1.28ZM308.61,41v8.82h5.87a2.25,2.25,0,0,0,2.29-1,5,5,0,0,0,1-3.47c0-3.09-1.84-4.31-3.33-4.31Z" fill="#f63"/><path d="M330.34,38.47c4.06,0,6.56,2.6,6.56,6.84,0,3.29-.87,5.17-3,6.35a6.29,6.29,0,0,1-3.43.69h-5.21v8c0,.9-.35,1.28-1.25,1.28s-1.29-.38-1.29-1.28V39.75c0-.9.39-1.28,1.29-1.28ZM325.24,41v8.82h5.86a2.26,2.26,0,0,0,2.3-1,5,5,0,0,0,1-3.47c0-3.09-1.84-4.31-3.34-4.31Z" fill="#f63"/><path d="M347.87,59.09a1.1,1.1,0,0,1,1.21,1.25,1.13,1.13,0,0,1-1.21,1.28H343.7c-2.74,0-6-2.29-6-6.84V45.31c0-4.59,3.3-6.84,6-6.84h4.17c.8,0,1.21.45,1.21,1.28A1.09,1.09,0,0,1,347.87,41h-3.54a3.62,3.62,0,0,0-2.33.59,4.69,4.69,0,0,0-1.77,3.61v9.72A4.57,4.57,0,0,0,342,58.5a3.66,3.66,0,0,0,2.33.59Z" fill="#4c5054"/><path d="M364.18,54.78a7,7,0,0,1-14.09,0V45.2a7,7,0,0,1,14.09,0Zm-11.56.14a4.24,4.24,0,0,0,.91,2.54c1.21,1.32,1.7,1.73,3.61,1.73a3.48,3.48,0,0,0,2.7-.83,4.61,4.61,0,0,0,1.81-3.44V45.06a4.52,4.52,0,0,0-.9-2.43c-1.22-1.32-1.71-1.73-3.61-1.73a3.49,3.49,0,0,0-2.71.83,4.63,4.63,0,0,0-1.81,3.33Z" fill="#4c5054"/><path d="M369.11,59.09h8.3a1.1,1.1,0,0,1,1.21,1.25,1.13,1.13,0,0,1-1.21,1.28h-9.55c-.9,0-1.28-.38-1.28-1.28V39.75c0-.9.38-1.28,1.28-1.28s1.25.38,1.25,1.28Z" fill="#4c5054"/><path d="M382.16,59.09h8.3a1.1,1.1,0,0,1,1.21,1.25,1.13,1.13,0,0,1-1.21,1.28h-9.55c-.9,0-1.28-.38-1.28-1.28V39.75c0-.9.38-1.28,1.28-1.28s1.25.38,1.25,1.28Z" fill="#4c5054"/><path d="M395,56.24l-1.45,4.58c-.14.42-.46.8-.8.8-1.18,0-1.7-.48-1.7-1a1.62,1.62,0,0,1,.07-.59l6.52-20.31c.28-.87.56-1.21,1.39-1.21s1.11.34,1.39,1.21L407,60a1.88,1.88,0,0,1,.06.59c0,.56-.52,1-1.7,1-.34,0-.66-.38-.79-.8l-1.46-4.58Zm.91-2.53h6.25L399,44.16Z" fill="#4c5054"/><path d="M409.79,61.62c-.9,0-1.28-.38-1.28-1.28V39.75c0-.9.38-1.28,1.28-1.28h6.8c2.26,0,4.8,2,4.8,5.69a6.16,6.16,0,0,1-2,4.62c1.84,1.49,2.78,2.81,2.78,6,0,4.55-3.26,6.84-6,6.84ZM411,47.53h5.35c1.39,0,2.46-1.22,2.46-3.37S417.91,41,416.39,41H411Zm0,11.56h5.35c1.49,0,3.33-1.22,3.33-4.31a4.47,4.47,0,0,0-1-3.33,2.75,2.75,0,0,0-2.32-1.39H411Z" fill="#4c5054"/><path d="M438,54.78a7.05,7.05,0,0,1-14.1,0V45.2a7.05,7.05,0,0,1,14.1,0Zm-11.56.14a4.3,4.3,0,0,0,.9,2.54c1.21,1.32,1.7,1.73,3.61,1.73a3.5,3.5,0,0,0,2.71-.83,4.59,4.59,0,0,0,1.8-3.44V45.06a4.52,4.52,0,0,0-.9-2.43c-1.22-1.32-1.7-1.73-3.61-1.73a3.5,3.5,0,0,0-2.71.83,4.62,4.62,0,0,0-1.8,3.33Z" fill="#4c5054"/><path d="M448,38.47c4.06,0,6.56,2.6,6.56,6.84,0,2.36-.45,4.13-1.6,5.31a5.54,5.54,0,0,1-3.23,1.63l4.06,7.32a1.29,1.29,0,0,1,.25.91,1.33,1.33,0,0,1-1,1.14c-.56,0-1,0-1.39-.69l-4.76-8.58h-4v8c0,.9-.34,1.28-1.25,1.28s-1.28-.38-1.28-1.28V39.75c0-.9.38-1.28,1.28-1.28ZM442.9,41v8.82h5.87a2.25,2.25,0,0,0,2.29-1,5,5,0,0,0,1-3.47c0-3.09-1.84-4.31-3.33-4.31Z" fill="#4c5054"/><path d="M459.32,56.24l-1.46,4.58c-.14.42-.45.8-.79.8-1.19,0-1.71-.48-1.71-1a1.62,1.62,0,0,1,.07-.59L462,39.68c.28-.87.56-1.21,1.39-1.21s1.11.34,1.39,1.21L471.26,60a1.62,1.62,0,0,1,.07.59c0,.56-.52,1-1.7,1-.35,0-.66-.38-.8-.8l-1.46-4.58Zm.9-2.53h6.25l-3.12-9.55Z" fill="#4c5054"/><path d="M478.93,41V60.34c0,.9-.38,1.28-1.28,1.28s-1.25-.38-1.25-1.28V41h-4.34a1.11,1.11,0,0,1-1.22-1.25,1.14,1.14,0,0,1,1.22-1.28h11.21a1.13,1.13,0,0,1,1.22,1.28A1.11,1.11,0,0,1,483.27,41Z" fill="#4c5054"/><path d="M499,54.78a7,7,0,0,1-14.09,0V45.2a7,7,0,0,1,14.09,0Zm-11.56.14a4.3,4.3,0,0,0,.9,2.54c1.22,1.32,1.7,1.73,3.61,1.73a3.49,3.49,0,0,0,2.71-.83,4.61,4.61,0,0,0,1.81-3.44V45.06a4.45,4.45,0,0,0-.91-2.43c-1.21-1.32-1.7-1.73-3.61-1.73a3.48,3.48,0,0,0-2.7.83,4.63,4.63,0,0,0-1.81,3.33Z" fill="#4c5054"/><path d="M509.06,38.47c4.06,0,6.56,2.6,6.56,6.84,0,2.36-.45,4.13-1.59,5.31a5.57,5.57,0,0,1-3.23,1.63l4.06,7.32a1.36,1.36,0,0,1,.24.91,1.32,1.32,0,0,1-1,1.14c-.56,0-1,0-1.39-.69l-4.75-8.58h-4v8c0,.9-.35,1.28-1.25,1.28s-1.29-.38-1.29-1.28V39.75c0-.9.39-1.28,1.29-1.28ZM504,41v8.82h5.86a2.26,2.26,0,0,0,2.3-1,5,5,0,0,0,1-3.47c0-3.09-1.84-4.31-3.33-4.31Z" fill="#4c5054"/><circle cx="25.15" cy="243.04" r="0.91" fill="#fff"/><circle cx="28.52" cy="243.04" r="0.91" fill="#fff"/><circle cx="25.15" cy="236.3" r="0.91" fill="#fff"/><circle cx="28.52" cy="236.3" r="0.91" fill="#fff"/><text transform="translate(664.35 48.29)" font-size="11" fill="#4c5054" font-family="Arial-BoldMT, Arial" font-weight="700">Sites <tspan x="-27.25" y="10.2">to be scanned</tspan></text><path d="M636,17.25A8.93,8.93,0,1,0,645,26.18,8.95,8.95,0,0,0,636,17.25Zm8,6.18.15.47a2.57,2.57,0,0,1-.27-.46C643.93,23.39,644,23.4,644.05,23.43Zm-.55-.88c.1,0,.34.42.4.7,0,0,0,.08,0,.08s0-.07,0-.16-.08-.06-.45-.08a.2.2,0,0,1-.17-.1C643.19,22.85,643.37,22.55,643.5,22.55Zm-8.27-4.42a.55.55,0,0,0,.39.13c.3,0,.59.17.31.17a.43.43,0,0,0-.2.06,2.2,2.2,0,0,1-.68-.35C635.07,18,635.12,18,635.23,18.13ZM628,23.37h0c0,.08,0,.17-.06.18h0Zm15.88,4.77a4,4,0,0,0-.17,1c0,.3-.06.6-.09.78a8.53,8.53,0,0,1-5.54,4.5.21.21,0,0,0-.13-.15,2,2,0,0,0-1.38-.09,8.86,8.86,0,0,1-2.18.15.23.23,0,0,0-.25.14,8.49,8.49,0,0,1-5.39-3.88,1.34,1.34,0,0,0,.37.08c.78.09,1.05.72,1.44,1.32a.35.35,0,0,0,.63-.08,3.51,3.51,0,0,0,.23-1.36c-.05-.32-.28-.48-.44-.75s-.27-.89-.39-1.06-.32-.12-.48-.11h0a0,0,0,0,0,0,0,3.21,3.21,0,0,1-.88-.1,0,0,0,0,1,0,0s0-.05,0,0,0,0,0,0l-.17,0c-.51-.12-.44.15-.42.37a1.09,1.09,0,0,0-.1.89.13.13,0,0,0-.06,0,8.32,8.32,0,0,1-.81-3.59,7.32,7.32,0,0,1,0-.81h0a3.87,3.87,0,0,0,0,.57c0,.12,0,.23.08.23s.08,0,.08-.71v0l.25.13c0,.48-.09,1.09.15,1.45a.92.92,0,0,0,.59.39,2.59,2.59,0,0,1,1.21.37.35.35,0,0,0,.51-.39,1,1,0,0,0-.5-.56c-.15-.08-.33-.11-.48-.19-.3-.17-.33-.44-.41-.74a1.38,1.38,0,0,0-.45-.7,1.11,1.11,0,0,0-.6-.79l-.06,0c-.05-.25,0-.84.13-.84s.07.07.08.16.05.11.18-.15.22-.79.09-.79-.07.08-.07.19a.59.59,0,0,1-.11.33c-.09.12-.1.12-.1,0a1.1,1.1,0,0,1,.29-.65.26.26,0,0,0,.09-.27c0-.1,0-.13,0-.1s.07,0,0-.07,0-.08-.07-.07c.08-.15.17-.29.26-.43h0c0,.06,0,.09.07.07a.2.2,0,0,0,.07-.15c0-.05,0-.07-.06-.07a8.83,8.83,0,0,1,.69-.92l0,0c0,.05.09,0,.18,0s.12-.11.1-.14a.15.15,0,0,0-.16-.05,8.26,8.26,0,0,1,2-1.63,2,2,0,0,0,.7-.3s.06-.07.14-.07a.63.63,0,0,0,.27-.06,5.21,5.21,0,0,1,.76-.27c.08,0,0,0-.12.09s-.25.15-.22.21a.07.07,0,0,1-.07.1c-.13,0-.3.2-.23.27s.1,0,.17,0,.13,0,.13.05,0,.13-.25.11a3.31,3.31,0,0,0-.69.08,4,4,0,0,1-.62.09,1.17,1.17,0,0,0-.81.55.44.44,0,0,1-.22.25c-.22.11-.32.32-.11.24s0,.06-.13.19a1.13,1.13,0,0,0-.29.37.54.54,0,0,1-.25.29c-.12.09-.21.17-.18.2a.83.83,0,0,0,.37-.19,2.37,2.37,0,0,1,.38-.23.18.18,0,0,0,.11-.09,1.62,1.62,0,0,1,.74-.37c.12,0,.16.11.13.41,0,.09,0,.16.06.16s.08-.05.08-.11,0-.09.07-.07.06.13,0,.22,0,.17,0,.17.08.28-.06.64a1.08,1.08,0,0,0,.17,1.12.57.57,0,0,1,.17.31.21.21,0,0,0,.08.17.17.17,0,0,1,0,.18.12.12,0,0,0,.07.16.19.19,0,0,1,.11.14.39.39,0,0,0,.14.23c.12.11.14.11.14,0a.19.19,0,0,0-.07-.16.12.12,0,0,1,0-.15c0-.06,0-.1,0-.1s-.11-.1-.17-.23l-.11-.23.21.25c.12.13.24.28.27.32.2.28.48.56.54.55s0,0,0,.08-.1.25.17.25.2,0,.17.07.31.3.68.32a.81.81,0,0,1,.51.17,1,1,0,0,0,.41.19c.27.06.57.29.57.44s0,.09.06.09a.32.32,0,0,1,.16.1c.14.13.56.21.54.1a.07.07,0,0,1,.07-.09.1.1,0,0,1,.1.07.15.15,0,0,0,.06.11.57.57,0,0,1,.08.3.43.43,0,0,1-.2.46,1,1,0,0,0-.26,1.13,5,5,0,0,1,.55,1.11.78.78,0,0,0,.31.26.64.64,0,0,1,.42.73,8.73,8.73,0,0,0-.13,1,1.92,1.92,0,0,1-.1.46,6.6,6.6,0,0,0-.14.67.73.73,0,0,1-.13.41s0,.05,0,.05.08,0,0,.09,0,.4.28.51.48.08.48,0-.06-.08-.12-.13-.12-.11,0-.25.14-.16.08-.2,0-.16.3-.38a2.12,2.12,0,0,1,.46-.34c.11,0,.26-.22.24-.35s0-.12.14-.1.54-.27.89-.7a1.78,1.78,0,0,1,.32-.29c.11-.06.2-.17.2-.22s.1-.14.23-.18a1.27,1.27,0,0,0,.65-.83,2,2,0,0,1,.36-.59,1,1,0,0,0,.32-.59c0-.15,0-.2-.1-.17s-.15,0-.22-.1a.42.42,0,0,0-.26-.14,2.17,2.17,0,0,1-.58-.25,1.59,1.59,0,0,0-.41-.18h0a.75.75,0,0,0-.06-.13c0-.05,0-.09,0-.11a.22.22,0,0,1-.07-.17c0-.14-.18-.29-.39-.37-.3-.26-.59-.55-.9-.79a1.71,1.71,0,0,0-1.91-.1.28.28,0,0,0-.13.16c-.11.11-.14.11-.3,0a.28.28,0,0,0-.28,0c-.28.15-.45-.06-.44-.57,0-.3-.08-.35-.52-.3-.23,0-.26,0-.19-.07s.06-.12,0-.14,0-.14.08-.26.09-.36-.09-.33l-.21,0a.24.24,0,0,0-.12.18.29.29,0,0,1-.26.21c-.29.06-.39,0-.52-.27a.66.66,0,0,1,0-.73,1.13,1.13,0,0,1,.75-.43c.09,0,.14,0,.14-.06s.14-.12.49,0a.39.39,0,0,1,.32.26c.11.26.29.44.35.34s-.06-.4-.16-.47-.08-.38.12-.55.23-.21.25-.29a2.65,2.65,0,0,1,.44-.6c.25-.19.55-.2.74-.43l.35-.17a.31.31,0,0,0,.16-.11c.05.06.06.06.06,0a.21.21,0,0,0,0-.06.31.31,0,0,0-.12-.43,4.39,4.39,0,0,1-1-.69c-.28-.3-.32-.69-.56-1a1.32,1.32,0,0,0-.59-.4l.09,0c.16-.05.24,0,.33,0a.38.38,0,0,0,.19.11.16.16,0,0,1,.12.1.17.17,0,0,0,.14.11c.06,0,.09,0,.07.09a.2.2,0,0,0,.08.19c.06.05.09.12.06.16s0,.06,0,0,.2.08.35.23.69.52.76.46a.63.63,0,0,0-.06-.3c-.12-.34-.07-.62.12-.67s.12-.06,0-.19-.12-.14-.15-.14a2,2,0,0,1-.37-.25,2.28,2.28,0,0,0-1.06-.56.1.1,0,0,1-.13-.07c0-.08.07-.1.62-.08a8.49,8.49,0,0,1,5.42,2.93l0,0a.52.52,0,0,0-.18.52c0,.25.2.34.36.5s.13.18.1.25a.5.5,0,0,0-.35.26.57.57,0,0,0,0,.34.29.29,0,0,0,0,.22.81.81,0,0,0,.16.16c0,.06,0,.08.08.07a.24.24,0,0,0,.16.05s0,0,0,0,0,.11,0,.14.07,0,.14-.06.11-.08,0,0-.07.12,0,.12,0,.06-.06.13-.1.15-.08.17-.33.33-.43.32-.07,0-.07.1a1.11,1.11,0,0,1-.14.35,1.14,1.14,0,0,0-.12.49c0,.13,0,.22,0,.2s-.05.18-.05.44,0,.46.08.45.14.09.19.22c.14.33.45.56.62.47a.44.44,0,0,1,.27,0,.29.29,0,0,0,.26-.06c.18-.14.32-.14.32,0s.06.1.14.1.15,0,.1.29a2,2,0,0,0,0,.64C644,27.89,644,28,643.9,28.14Z" fill="#4c5054"/><path d="M638.86,19.45c-.19,0-.35.12-.2.12s.07,0,.05.07,0,.05.06,0a.34.34,0,0,1,.24,0c.16.1.35.1.41,0S639.08,19.43,638.86,19.45Z" fill="#4c5054"/><path d="M642.79,23.44a.15.15,0,0,0,.07-.07s0,0-.07,0a.08.08,0,0,0-.07.08S642.75,23.47,642.79,23.44Z" fill="#4c5054"/><path d="M629.58,21.27a.08.08,0,0,0-.07.08s0,0,.07,0a.15.15,0,0,0,.07-.07S629.62,21.27,629.58,21.27Z" fill="#4c5054"/><path d="M629.15,21.66s-.07.06-.07.08,0,0,.07,0a.07.07,0,0,0,.07-.07C629.22,21.65,629.19,21.64,629.15,21.66Z" fill="#4c5054"/><path d="M627.69,26.69c0-.24-.07-.43-.1-.41s-.05.07,0,.73c0,.25.09.45.13.45s0-.08,0-.16S627.72,26.94,627.69,26.69Z" fill="#4c5054"/><polyline points="805.56 614.75 805.56 617.75 802.56 617.75" fill="none" stroke="#60bcd8" stroke-miterlimit="10"/><line x1="796.58" y1="617.75" x2="9.56" y2="617.75" fill="none" stroke="#60bcd8" stroke-miterlimit="10" stroke-dasharray="5.98 5.98"/><polyline points="6.56 617.75 3.56 617.75 3.56 614.75" fill="none" stroke="#60bcd8" stroke-miterlimit="10"/><line x1="3.56" y1="608.71" x2="3.56" y2="128.77" fill="none" stroke="#60bcd8" stroke-miterlimit="10" stroke-dasharray="6.04 6.04"/><polyline points="3.56 125.75 3.56 122.75 6.56 122.75" fill="none" stroke="#60bcd8" stroke-miterlimit="10"/><line x1="12.55" y1="122.75" x2="799.57" y2="122.75" fill="none" stroke="#60bcd8" stroke-miterlimit="10" stroke-dasharray="5.98 5.98"/><polyline points="802.56 122.75 805.56 122.75 805.56 125.75" fill="none" stroke="#60bcd8" stroke-miterlimit="10"/><line x1="805.56" y1="131.79" x2="805.56" y2="611.73" fill="none" stroke="#60bcd8" stroke-miterlimit="10" stroke-dasharray="6.04 6.04"/><text transform="translate(532.56 441.25)" font-size="11" fill="#4c5054" font-family="Arial-BoldMT, Arial" font-weight="700">External database machine</text><text transform="translate(42.56 191.25)" font-size="11" fill="#4c5054" font-family="Arial-BoldMT, Arial" font-weight="700">Enterprise server machine</text><text transform="translate(504.56 164.25)" font-size="11" fill="#4c5054" font-family="Arial-BoldMT, Arial" font-weight="700">Agent machines</text><text transform="translate(631.54 607.25)" font-size="11" fill="#60bcd8" font-family="Arial-BoldMT, Arial" font-weight="700">Dedicated DMZ (recommended)</text><text transform="translate(114.56 113.25)" font-size="11" fill="#0071bc" font-family="Arial-BoldMT, Arial" font-weight="700">port 443</text><text transform="translate(396.56 113.25)" font-size="11" fill="#0071bc" font-family="Arial-BoldMT, Arial" font-weight="700">port 443</text><text transform="translate(678.56 113.25)" font-size="11" fill="#0071bc" font-family="Arial-BoldMT, Arial" font-weight="700">ports 80, 443, etc.</text><text transform="translate(123.93 486.25)" font-size="11" fill="#0071bc" font-family="Arial-BoldMT, Arial" font-weight="700">configured port<tspan x="5.18" y="13.2">(default 8080)</tspan></text><text transform="translate(388.15 456.25)" font-size="11" fill="#0071bc" font-family="Arial-BoldMT, Arial" font-weight="700">configured<tspan x="8.25" y="13.2">DB port</tspan></text><text transform="translate(633.15 393.25)" font-size="11" fill="#0071bc" font-family="Arial-BoldMT, Arial" font-weight="700">configured<tspan x="8.25" y="13.2">DB port</tspan></text><text transform="translate(372.25 238.25)" font-size="11" fill="#0071bc" font-family="Arial-BoldMT, Arial" font-weight="700">port 8072</text><text transform="translate(372.25 317.25)" font-size="11" fill="#0071bc" font-family="Arial-BoldMT, Arial" font-weight="700">port 9092<tspan x="-29.32" y="13.2">(if bundled DB used)</tspan></text><rect x="511.38" y="180.75" width="109" height="83" fill="#ebf0f2"/><path d="M619.88,181.25v82h-108v-82h108m1-1h-110v84h110v-84Z" fill="#4c5054"/><text transform="translate(550.3 220.25)" font-size="11" fill="#4c5054" font-family="Arial-BoldMT, Arial" font-weight="700">Agent</text><rect x="518.88" y="231.25" width="94" height="24" fill="#f63"/><text transform="translate(529.74 246.25)" font-size="11" fill="#fff" font-family="Arial-BoldMT, Arial" font-weight="700">Burp Scanner</text><rect x="632.18" y="180.75" width="109" height="83" fill="#ebf0f2"/><path d="M740.68,181.25v82h-108v-82h108m1-1h-110v84h110v-84Z" fill="#4c5054"/><text transform="translate(671.1 220.25)" font-size="11" fill="#4c5054" font-family="Arial-BoldMT, Arial" font-weight="700">Agent</text><rect x="639.68" y="231.25" width="94" height="24" fill="#f63"/><text transform="translate(650.54 246.25)" font-size="11" fill="#fff" font-family="Arial-BoldMT, Arial" font-weight="700">Burp Scanner</text><path d="M564.84,200.09a1.58,1.58,0,1,0-1.58,1.61A1.6,1.6,0,0,0,564.84,200.09Zm-2.36,0a.78.78,0,1,1,.78.81A.79.79,0,0,1,562.48,200.09Z" fill="#4c5054"/><path d="M568.84,198.48a1.61,1.61,0,1,0,1.58,1.61A1.6,1.6,0,0,0,568.84,198.48Zm0,2.42a.81.81,0,1,1,.78-.81A.79.79,0,0,1,568.84,200.9Z" fill="#4c5054"/><path d="M575.88,197.88h-2.32v-3h-7.24v-.77l1.43-2.13h-1.43v-1h-.8l.74-1.08v-1.66h-.8v1.41L564,191.79h1.52v1h.74l-.74,1.09v1h-7.33v3h-2.31v7.41h2.31v3h15.37v-3h2.32Zm-19.2,6.61v-5.81h1.51v5.81Zm16.08,3H559V195.72h13.77v11.73Zm2.32-3h-1.52v-5.81h1.52Z" fill="#4c5054"/><rect x="562.96" y="203.63" width="6.17" height="0.8" fill="#4c5054"/><path d="M685.64,200.09a1.58,1.58,0,1,0-1.58,1.61A1.6,1.6,0,0,0,685.64,200.09Zm-2.36,0a.78.78,0,1,1,.78.81A.79.79,0,0,1,683.28,200.09Z" fill="#4c5054"/><path d="M689.64,198.48a1.61,1.61,0,1,0,1.58,1.61A1.6,1.6,0,0,0,689.64,198.48Zm0,2.42a.81.81,0,1,1,.78-.81A.79.79,0,0,1,689.64,200.9Z" fill="#4c5054"/><path d="M696.68,197.88h-2.32v-3h-7.24v-.77l1.43-2.13h-1.43v-1h-.8l.74-1.08v-1.66h-.8v1.41l-1.46,2.13h1.52v1h.74l-.74,1.09v1H679v3h-2.31v7.41H679v3h15.37v-3h2.32Zm-19.2,6.61v-5.81H679v5.81Zm16.08,3H679.79V195.72h13.77v11.73Zm2.32-3h-1.52v-5.81h1.52Z" fill="#4c5054"/><rect x="683.76" y="203.63" width="6.17" height="0.8" fill="#4c5054"/><rect x="511.38" y="274.75" width="109" height="83" fill="#ebf0f2"/><path d="M619.88,275.25v82h-108v-82h108m1-1h-110v84h110v-84Z" fill="#4c5054"/><text transform="translate(550.3 314.25)" font-size="11" fill="#4c5054" font-family="Arial-BoldMT, Arial" font-weight="700">Agent</text><rect x="518.88" y="325.25" width="94" height="24" fill="#f63"/><text transform="translate(529.74 340.25)" font-size="11" fill="#fff" font-family="Arial-BoldMT, Arial" font-weight="700">Burp Scanner</text><rect x="632.18" y="274.75" width="109" height="83" fill="#ebf0f2"/><path d="M740.68,275.25v82h-108v-82h108m1-1h-110v84h110v-84Z" fill="#4c5054"/><text transform="translate(671.1 314.25)" font-size="11" fill="#4c5054" font-family="Arial-BoldMT, Arial" font-weight="700">Agent</text><rect x="639.68" y="325.25" width="94" height="24" fill="#f63"/><text transform="translate(650.54 340.25)" font-size="11" fill="#fff" font-family="Arial-BoldMT, Arial" font-weight="700">Burp Scanner</text><path d="M564.84,294.09a1.58,1.58,0,1,0-1.58,1.61A1.6,1.6,0,0,0,564.84,294.09Zm-2.36,0a.78.78,0,1,1,.78.81A.79.79,0,0,1,562.48,294.09Z" fill="#4c5054"/><path d="M568.84,292.48a1.61,1.61,0,1,0,1.58,1.61A1.6,1.6,0,0,0,568.84,292.48Zm0,2.42a.81.81,0,1,1,.78-.81A.79.79,0,0,1,568.84,294.9Z" fill="#4c5054"/><path d="M575.88,291.88h-2.32v-3h-7.24v-.77l1.43-2.13h-1.43v-1h-.8l.74-1.08v-1.66h-.8v1.41L564,285.79h1.52v1h.74l-.74,1.09v1h-7.33v3h-2.31v7.41h2.31v3h15.37v-3h2.32Zm-19.2,6.61v-5.81h1.51v5.81Zm16.08,3H559V289.72h13.77v11.73Zm2.32-3h-1.52v-5.81h1.52Z" fill="#4c5054"/><rect x="562.96" y="297.63" width="6.17" height="0.8" fill="#4c5054"/><path d="M685.64,294.09a1.58,1.58,0,1,0-1.58,1.61A1.6,1.6,0,0,0,685.64,294.09Zm-2.36,0a.78.78,0,1,1,.78.81A.79.79,0,0,1,683.28,294.09Z" fill="#4c5054"/><path d="M689.64,292.48a1.61,1.61,0,1,0,1.58,1.61A1.6,1.6,0,0,0,689.64,292.48Zm0,2.42a.81.81,0,1,1,.78-.81A.79.79,0,0,1,689.64,294.9Z" fill="#4c5054"/><path d="M696.68,291.88h-2.32v-3h-7.24v-.77l1.43-2.13h-1.43v-1h-.8l.74-1.08v-1.66h-.8v1.41l-1.46,2.13h1.52v1h.74l-.74,1.09v1H679v3h-2.31v7.41H679v3h15.37v-3h2.32Zm-19.2,6.61v-5.81H679v5.81Zm16.08,3H679.79V289.72h13.77v11.73Zm2.32-3h-1.52v-5.81h1.52Z" fill="#4c5054"/><rect x="683.76" y="297.63" width="6.17" height="0.8" fill="#4c5054"/><path d="M755.17,148.25h-6v1h6v-1Zm-12,0h-6v1h6v-1Zm-12,0h-6v1h6v-1Zm-12,0h-6v1h6v-1Zm-12,0h-6v1h6v-1Zm-12,0h-6v1h6v-1Zm-12,0h-6v1h6v-1Zm-12,0h-6v1h6v-1Zm-12,0h-6v1h6v-1Zm-12,0h-6v1h6v-1Zm-12,0h-6v1h6v-1Zm-12,0h-6v1h6v-1Zm-12,0h-6v1h6v-1Zm-12,0h-6v1h6v-1Zm-12,0h-6v1h6v-1Zm-12,0h-6v1h6v-1Zm-12,0h-6v1h6v-1Zm-12,0h-6v1h6v-1Zm-12,0h-6v1h6v-1Zm-12,0h-6v1h6v-1Zm-12,0h-6v1h6v-1Zm-12,0h-5.61v1h5.61v-1Zm-4.61,6.4h-1v6h1v-6Zm0,12h-1v6h1v-6Zm0,12h-1v6h1v-6Zm0,12h-1v6h1v-6Zm0,12h-1v6h1v-6Zm0,12h-1v6h1v-6Zm0,12h-1v6h1v-6Zm0,12h-1v6h1v-6Zm0,12h-1v6h1v-6Zm0,12h-1v6h1v-6Zm0,12h-1v6h1v-6Zm0,12h-1v6h1v-6Zm0,12h-1v6h1v-6Zm0,12h-1v6h1v-6Zm0,12h-1v6h1v-6Zm0,12h-1v6h1v-6Zm0,12h-1v6h1v-6Zm0,12h-1v6h1v-6Zm5.4,10.6h-6v1h6v-1Zm12,0h-6v1h6v-1Zm12,0h-6v1h6v-1Zm12,0h-6v1h6v-1Zm12,0h-6v1h6v-1Zm12,0h-6v1h6v-1Zm12,0h-6v1h6v-1Zm12,0h-6v1h6v-1Zm12,0h-6v1h6v-1Zm12,0h-6v1h6v-1Zm12,0h-6v1h6v-1Zm12,0h-6v1h6v-1Zm12,0h-6v1h6v-1Zm12,0h-6v1h6v-1Zm12,0h-6v1h6v-1Zm12,0h-6v1h6v-1Zm12,0h-6v1h6v-1Zm12,0h-6v1h6v-1Zm12,0h-6v1h6v-1Zm12,0h-6v1h6v-1Zm12,0h-6v1h6v-1Zm11.21,0H750v1h5.21v-1Zm0-11.79h-1v6h1v-6Zm0-12h-1v6h1v-6Zm0-12h-1v6h1v-6Zm0-12h-1v6h1v-6Zm0-12h-1v6h1v-6Zm0-12h-1v6h1v-6Zm0-12h-1v6h1v-6Zm0-12h-1v6h1v-6Zm0-12h-1v6h1v-6Zm0-12h-1v6h1v-6Zm0-12h-1v6h1v-6Zm0-12h-1v6h1v-6Zm0-12h-1v6h1v-6Zm0-12h-1v6h1v-6Zm0-12h-1v6h1v-6Zm0-12h-1v6h1v-6Zm0-12h-1v6h1v-6Zm0-12h-1v6h1v-6Z" fill="#4c5054"/><polygon points="673.96 148.25 673.96 76.95 676.85 76.95 673.56 71.25 670.27 76.95 673.17 76.95 673.17 148.25 673.96 148.25" fill="#1d81c4"/><path d="M304.56,176.25h-6v1h6v-1Zm-12,0h-6v1h6v-1Zm-12,0h-6v1h6v-1Zm-12,0h-6v1h6v-1Zm-12,0h-6v1h6v-1Zm-12,0h-6v1h6v-1Zm-12,0h-6v1h6v-1Zm-12,0h-6v1h6v-1Zm-12,0h-6v1h6v-1Zm-12,0h-6v1h6v-1Zm-12,0h-6v1h6v-1Zm-12,0h-6v1h6v-1Zm-12,0h-6v1h6v-1Zm-12,0h-6v1h6v-1Zm-12,0h-6v1h6v-1Zm-12,0h-6v1h6v-1Zm-12,0h-6v1h6v-1Zm-12,0h-6v1h6v-1Zm-12,0h-6v1h6v-1Zm-12,0h-6v1h6v-1Zm-12,0h-6v1h6v-1Zm-12,0h-6v1h6v-1Zm-12,0h-6v1h6v-1Zm-5,6h-1v6h1v-6Zm0,12h-1v6h1v-6Zm0,12h-1v6h1v-6Zm0,12h-1v6h1v-6Zm0,12h-1v6h1v-6Zm0,12h-1v6h1v-6Zm0,12h-1v6h1v-6Zm0,12h-1v6h1v-6Zm0,12h-1v6h1v-6Zm0,12h-1v6h1v-6Zm0,12h-1v6h1v-6Zm0,12h-1v6h1v-6Zm0,12h-1v6h1v-6Zm0,12h-1v6h1v-6Zm0,12h-1v6h1v-6Zm0,12h-1v6h1v-6Zm0,12h-1v6h1v-6Zm0,12h-1v6h1v-6Zm0,12h-1v3h3v-1h-2v-2Zm14,2h-6v1h6v-1Zm12,0h-6v1h6v-1Zm12,0h-6v1h6v-1Zm12,0h-6v1h6v-1Zm12,0h-6v1h6v-1Zm12,0h-6v1h6v-1Zm12,0h-6v1h6v-1Zm12,0h-6v1h6v-1Zm12,0h-6v1h6v-1Zm12,0h-6v1h6v-1Zm12,0h-6v1h6v-1Zm12,0h-6v1h6v-1Zm12,0h-6v1h6v-1Zm12,0h-6v1h6v-1Zm12,0h-6v1h6v-1Zm12,0h-6v1h6v-1Zm12,0h-6v1h6v-1Zm12,0h-6v1h6v-1Zm12,0h-6v1h6v-1Zm12,0h-6v1h6v-1Zm12,0h-6v1h6v-1Zm12,0h-6v1h6v-1Zm12,0h-6v1h6v-1Zm3-8h-1v6h1v-6Zm0-12h-1v6h1v-6Zm0-12h-1v6h1v-6Zm0-12h-1v6h1v-6Zm0-12h-1v6h1v-6Zm0-12h-1v6h1v-6Zm0-12h-1v6h1v-6Zm0-12h-1v6h1v-6Zm0-12h-1v6h1v-6Zm0-12h-1v6h1v-6Zm0-12h-1v6h1v-6Zm0-12h-1v6h1v-6Zm0-12h-1v6h1v-6Zm0-12h-1v6h1v-6Zm0-12h-1v6h1v-6Zm0-12h-1v6h1v-6Zm0-12h-1v6h1v-6Zm0-12h-1v6h1v-6Zm0-12h-6v1h5v5h1v-6Z" fill="#4c5054"/><path d="M714.56,425.25h-6v1h6v-1Zm-12,0h-6v1h6v-1Zm-12,0h-6v1h6v-1Zm-12,0h-6v1h6v-1Zm-12,0h-6v1h6v-1Zm-12,0h-6v1h6v-1Zm-12,0h-6v1h6v-1Zm-12,0h-6v1h6v-1Zm-12,0h-6v1h6v-1Zm-12,0h-6v1h6v-1Zm-12,0h-6v1h6v-1Zm-12,0h-6v1h6v-1Zm-12,0h-6v1h6v-1Zm-12,0h-6v1h6v-1Zm-12,0h-6v1h6v-1Zm-12,0h-6v1h6v-1Zm-9,2h-1v6h1v-6Zm0,12h-1v6h1v-6Zm0,12h-1v6h1v-6Zm0,12h-1v6h1v-6Zm0,12h-1v6h1v-6Zm0,12h-1v6h1v-6Zm0,12h-1v6h1v-6Zm0,12h-1v6h1v-6Zm0,12h-1v6h1v-6Zm0,12h-1v6h1v-6Zm0,12h-1v6h1v-6Zm10,6h-6v1h6v-1Zm12,0h-6v1h6v-1Zm12,0h-6v1h6v-1Zm12,0h-6v1h6v-1Zm12,0h-6v1h6v-1Zm12,0h-6v1h6v-1Zm12,0h-6v1h6v-1Zm12,0h-6v1h6v-1Zm12,0h-6v1h6v-1Zm12,0h-6v1h6v-1Zm12,0h-6v1h6v-1Zm12,0h-6v1h6v-1Zm12,0h-6v1h6v-1Zm12,0h-6v1h6v-1Zm12,0h-6v1h6v-1Zm12,0h-6v1h6v-1Zm11,0h-5v1h5v-1Zm0-12h-1v6h1v-6Zm0-12h-1v6h1v-6Zm0-12h-1v6h1v-6Zm0-12h-1v6h1v-6Zm0-12h-1v6h1v-6Zm0-12h-1v6h1v-6Zm0-12h-1v6h1v-6Zm0-12h-1v6h1v-6Zm0-12h-1v6h1v-6Zm0-12h-1v6h1v-6Zm0-8h-6v1h5v1h1v-2Z" fill="#4c5054"/><polygon points="498.11 245.6 300.99 245.6 300.99 242.71 295.29 246 300.99 249.29 300.99 246.4 498.11 246.4 498.11 245.6" fill="#1d81c4"/><polygon points="498.2 338.85 300.9 338.85 300.9 335.96 295.2 339.25 300.9 342.54 300.9 339.65 498.2 339.65 498.2 338.85" fill="#1d81c4"/><polygon points="110.83 638.25 110.83 339.95 113.73 339.95 110.44 334.25 107.15 339.95 110.04 339.95 110.04 638.25 110.83 638.25" fill="#1d81c4"/><path d="M293.17,401.38v77.11c0,.05,0,.13,0,.16H518.87v2.89l5.69-3.29L518.87,475v2.89H294s0-.08,0-.12V401.38Z" fill="#1d81c4"/><polygon points="625.15 370.25 625.15 419.55 622.26 419.55 625.55 425.25 628.83 419.55 625.94 419.55 625.94 370.25 625.15 370.25" fill="#1d81c4"/><rect x="56" y="255" width="109" height="79" fill="#fcf1e0"/><path d="M164.5,255.5v78H56.5v-78h108m1-1H55.5v80h110v-80Z" fill="#ef9900"/><text transform="translate(80.87 315.25)" font-size="11" fill="#ef9900" font-family="Arial-BoldMT, Arial" font-weight="700"><tspan letter-spacing="-0.02em">W</tspan><tspan x="10.18" y="0">eb server</tspan></text><path d="M110.51,274.75a12.5,12.5,0,1,0,0,25h0a12.5,12.5,0,0,0,0-25Zm9,4.74a6.39,6.39,0,0,1-1.72,1.66,9.2,9.2,0,0,1-1.57.85,16.91,16.91,0,0,0-1.93-3.93,16.33,16.33,0,0,0-2.13-2.59,11.78,11.78,0,0,1,6.75,3.37C119.12,279.06,119.32,279.27,119.51,279.49Zm-8.38,19.63-.33,0v-7.66a15.18,15.18,0,0,1,4.84.81,15.92,15.92,0,0,1-1.86,3.79A14.36,14.36,0,0,1,111.13,299.12Zm-5.78-6.84a14.79,14.79,0,0,1,4.84-.8v7.66l-.34,0A16.07,16.07,0,0,1,105.35,292.28Zm4.51-16.9h.34V283a15.15,15.15,0,0,1-4.84-.8,16,16,0,0,1,1.86-3.8A15.09,15.09,0,0,1,109.86,275.38Zm5.79,6.84a15.2,15.2,0,0,1-4.84.8v-7.65h.34A16.15,16.15,0,0,1,115.65,282.22Zm-4.84,1.42a15.57,15.57,0,0,0,5-.82,15.36,15.36,0,0,1,.63,4.13h-5.65Zm-.61,0V287h-5.65a15.7,15.7,0,0,1,.63-4.13A15.94,15.94,0,0,0,110.2,283.64Zm-6.27,3.3H98.62a11.73,11.73,0,0,1,2.48-7,8.11,8.11,0,0,0,3.5,2.61A16.34,16.34,0,0,0,103.93,286.94Zm0,.61a16.09,16.09,0,0,0,.66,4.36,8,8,0,0,0-3.5,2.61,11.77,11.77,0,0,1-2.47-7Zm.61,0h5.65v3.31a15.57,15.57,0,0,0-5,.82A15.5,15.5,0,0,1,104.54,287.55Zm6.26,3.32v-3.31h5.65a15.64,15.64,0,0,1-.63,4.13A15.68,15.68,0,0,0,110.8,290.87Zm6.27-3.31h5.31a11.76,11.76,0,0,1-2.48,7,8,8,0,0,0-3.5-2.62A16.34,16.34,0,0,0,117.07,287.56Zm0-.61a16.49,16.49,0,0,0-.66-4.36,8.1,8.1,0,0,0,3.5-2.6,11.72,11.72,0,0,1,2.47,7Zm-15-8.11a11.76,11.76,0,0,1,6.75-3.36,16.33,16.33,0,0,0-2.13,2.59,17,17,0,0,0-1.93,3.92,8.84,8.84,0,0,1-1.57-.85,6.39,6.39,0,0,1-1.72-1.66C101.69,279.26,101.89,279.05,102.1,278.84ZM101.49,295a7.43,7.43,0,0,1,3.29-2.5,17,17,0,0,0,1.93,3.92,16.33,16.33,0,0,0,2.13,2.59,11.78,11.78,0,0,1-6.75-3.37C101.88,295.45,101.68,295.23,101.49,295Zm17.41.65a11.78,11.78,0,0,1-6.75,3.37,16.72,16.72,0,0,0,4.06-6.52,8.84,8.84,0,0,1,1.57.85A6.39,6.39,0,0,1,119.5,295C119.31,295.24,119.11,295.46,118.9,295.66Z" fill="#ffaf10"/><rect x="184.85" y="206.25" width="109" height="79" fill="#bfe2d9"/><path d="M293.35,206.75v78h-108v-78h108m1-1h-110v80h110v-80Z" fill="#159c80"/><text transform="translate(212.14 263.25)" font-size="11" fill="#159c80" font-family="Arial-BoldMT, Arial" font-weight="700">Enterprise<tspan x="10.69" y="13.2">server</tspan></text><rect x="221" y="211.8" width="17.48" height="37.14" fill="#159c80" stroke="#159c80" stroke-miterlimit="10" stroke-width="0.5"/><line x1="221.01" y1="223.96" x2="238.48" y2="223.97" fill="none" stroke="#fff" stroke-miterlimit="10" stroke-width="0.5"/><line x1="221" y1="227.73" x2="238.48" y2="227.74" fill="none" stroke="#fff" stroke-miterlimit="10" stroke-width="0.5"/><line x1="221.01" y1="220.07" x2="238.48" y2="220.08" fill="none" stroke="#fff" stroke-miterlimit="10" stroke-width="0.5"/><line x1="221" y1="239.44" x2="238.47" y2="239.45" fill="none" stroke="#fff" stroke-miterlimit="10" stroke-width="0.5"/><line x1="220.99" y1="243.15" x2="238.47" y2="243.16" fill="none" stroke="#fff" stroke-miterlimit="10" stroke-width="0.5"/><line x1="221" y1="231.66" x2="238.48" y2="231.67" fill="none" stroke="#fff" stroke-miterlimit="10" stroke-width="0.5"/><line x1="221" y1="235.62" x2="238.47" y2="235.63" fill="none" stroke="#fff" stroke-miterlimit="10" stroke-width="0.5"/><circle cx="222.86" cy="241.44" r="0.53" fill="#fff"/><circle cx="224.82" cy="241.44" r="0.53" fill="#fff"/><circle cx="226.78" cy="241.44" r="0.53" fill="#fff"/><circle cx="228.74" cy="241.44" r="0.53" fill="#fff"/><circle cx="230.7" cy="241.44" r="0.53" fill="#fff"/><circle cx="232.65" cy="241.44" r="0.53" fill="#fff"/><circle cx="234.61" cy="241.45" r="0.53" fill="#fff"/><circle cx="236.57" cy="241.45" r="0.53" fill="#fff"/><circle cx="222.87" cy="237.52" r="0.53" fill="#fff"/><circle cx="224.82" cy="237.52" r="0.53" fill="#fff"/><circle cx="226.78" cy="237.53" r="0.53" fill="#fff"/><circle cx="228.74" cy="237.53" r="0.53" fill="#fff"/><circle cx="230.7" cy="237.53" r="0.53" fill="#fff"/><circle cx="232.66" cy="237.53" r="0.53" fill="#fff"/><circle cx="234.61" cy="237.53" r="0.53" fill="#fff"/><circle cx="236.57" cy="237.53" r="0.53" fill="#fff"/><circle cx="222.87" cy="233.61" r="0.53" fill="#fff"/><circle cx="224.83" cy="233.61" r="0.53" fill="#fff"/><circle cx="226.79" cy="233.61" r="0.53" fill="#fff"/><circle cx="228.74" cy="233.61" r="0.53" fill="#fff"/><circle cx="230.7" cy="233.61" r="0.53" fill="#fff"/><circle cx="232.66" cy="233.61" r="0.53" fill="#fff"/><circle cx="234.62" cy="233.61" r="0.53" fill="#fff"/><circle cx="236.57" cy="233.62" r="0.53" fill="#fff"/><circle cx="222.87" cy="229.69" r="0.53" fill="#fff"/><circle cx="224.83" cy="229.69" r="0.53" fill="#fff"/><circle cx="226.79" cy="229.69" r="0.53" fill="#fff"/><circle cx="228.75" cy="229.69" r="0.53" fill="#fff"/><circle cx="230.7" cy="229.7" r="0.53" fill="#fff"/><circle cx="232.66" cy="229.7" r="0.53" fill="#fff"/><circle cx="234.62" cy="229.7" r="0.53" fill="#fff"/><circle cx="236.58" cy="229.7" r="0.53" fill="#fff"/><circle cx="222.87" cy="225.78" r="0.53" fill="#fff"/><circle cx="224.83" cy="225.78" r="0.53" fill="#fff"/><circle cx="226.79" cy="225.78" r="0.53" fill="#fff"/><circle cx="228.75" cy="225.78" r="0.53" fill="#fff"/><circle cx="230.71" cy="225.78" r="0.53" fill="#fff"/><circle cx="232.66" cy="225.78" r="0.53" fill="#fff"/><circle cx="234.62" cy="225.78" r="0.53" fill="#fff"/><circle cx="236.58" cy="225.78" r="0.53" fill="#fff"/><circle cx="222.88" cy="221.86" r="0.53" fill="#fff"/><circle cx="224.83" cy="221.86" r="0.53" fill="#fff"/><circle cx="226.79" cy="221.86" r="0.53" fill="#fff"/><circle cx="228.75" cy="221.86" r="0.53" fill="#fff"/><circle cx="230.71" cy="221.86" r="0.53" fill="#fff"/><circle cx="232.67" cy="221.87" r="0.53" fill="#fff"/><circle cx="234.62" cy="221.87" r="0.53" fill="#fff"/><circle cx="236.58" cy="221.87" r="0.53" fill="#fff"/><circle cx="222.88" cy="217.94" r="0.53" fill="#fff"/><circle cx="224.84" cy="217.94" r="0.53" fill="#fff"/><circle cx="226.79" cy="217.95" r="0.53" fill="#fff"/><circle cx="228.75" cy="217.95" r="0.53" fill="#fff"/><circle cx="230.71" cy="217.95" r="0.53" fill="#fff"/><circle cx="232.67" cy="217.95" r="0.53" fill="#fff"/><circle cx="234.63" cy="217.95" r="0.53" fill="#fff"/><circle cx="236.58" cy="217.95" r="0.53" fill="#fff"/><line x1="221.01" y1="215.78" x2="238.49" y2="215.79" fill="none" stroke="#fff" stroke-miterlimit="10" stroke-width="0.5"/><rect x="240.21" y="211.82" width="17.48" height="37.14" fill="#159c80" stroke="#159c80" stroke-miterlimit="10" stroke-width="0.5"/><line x1="240.22" y1="223.97" x2="257.69" y2="223.98" fill="none" stroke="#fff" stroke-miterlimit="10" stroke-width="0.5"/><line x1="240.22" y1="227.74" x2="257.69" y2="227.75" fill="none" stroke="#fff" stroke-miterlimit="10" stroke-width="0.5"/><line x1="240.22" y1="220.08" x2="257.7" y2="220.09" fill="none" stroke="#fff" stroke-miterlimit="10" stroke-width="0.5"/><line x1="240.21" y1="239.45" x2="257.69" y2="239.46" fill="none" stroke="#fff" stroke-miterlimit="10" stroke-width="0.5"/><line x1="240.21" y1="243.16" x2="257.68" y2="243.17" fill="none" stroke="#fff" stroke-miterlimit="10" stroke-width="0.5"/><line x1="240.21" y1="231.67" x2="257.69" y2="231.68" fill="none" stroke="#fff" stroke-miterlimit="10" stroke-width="0.5"/><line x1="240.21" y1="235.63" x2="257.69" y2="235.64" fill="none" stroke="#fff" stroke-miterlimit="10" stroke-width="0.5"/><circle cx="242.08" cy="241.45" r="0.53" fill="#fff"/><circle cx="244.04" cy="241.45" r="0.53" fill="#fff"/><circle cx="245.99" cy="241.45" r="0.53" fill="#fff"/><circle cx="247.95" cy="241.45" r="0.53" fill="#fff"/><circle cx="249.91" cy="241.45" r="0.53" fill="#fff"/><circle cx="251.87" cy="241.46" r="0.53" fill="#fff"/><circle cx="253.83" cy="241.46" r="0.53" fill="#fff"/><circle cx="255.78" cy="241.46" r="0.53" fill="#fff"/><circle cx="242.08" cy="237.53" r="0.53" fill="#fff"/><circle cx="244.04" cy="237.54" r="0.53" fill="#fff"/><circle cx="246" cy="237.54" r="0.53" fill="#fff"/><circle cx="247.95" cy="237.54" r="0.53" fill="#fff"/><circle cx="249.91" cy="237.54" r="0.53" fill="#fff"/><circle cx="251.87" cy="237.54" r="0.53" fill="#fff"/><circle cx="253.83" cy="237.54" r="0.53" fill="#fff"/><circle cx="255.79" cy="237.54" r="0.53" fill="#fff"/><circle cx="242.08" cy="233.62" r="0.53" fill="#fff"/><circle cx="244.04" cy="233.62" r="0.53" fill="#fff"/><circle cx="246" cy="233.62" r="0.53" fill="#fff"/><circle cx="247.96" cy="233.62" r="0.53" fill="#fff"/><circle cx="249.91" cy="233.62" r="0.53" fill="#fff"/><circle cx="251.87" cy="233.62" r="0.53" fill="#fff"/><circle cx="253.83" cy="233.62" r="0.53" fill="#fff"/><circle cx="255.79" cy="233.63" r="0.53" fill="#fff"/><circle cx="242.08" cy="229.7" r="0.53" fill="#fff"/><circle cx="244.04" cy="229.7" r="0.53" fill="#fff"/><circle cx="246" cy="229.7" r="0.53" fill="#fff"/><circle cx="247.96" cy="229.71" r="0.53" fill="#fff"/><circle cx="249.92" cy="229.71" r="0.53" fill="#fff"/><circle cx="251.87" cy="229.71" r="0.53" fill="#fff"/><circle cx="253.83" cy="229.71" r="0.53" fill="#fff"/><circle cx="255.79" cy="229.71" r="0.53" fill="#fff"/><circle cx="242.09" cy="225.79" r="0.53" fill="#fff"/><circle cx="244.04" cy="225.79" r="0.53" fill="#fff"/><circle cx="246" cy="225.79" r="0.53" fill="#fff"/><circle cx="247.96" cy="225.79" r="0.53" fill="#fff"/><circle cx="249.92" cy="225.79" r="0.53" fill="#fff"/><circle cx="251.88" cy="225.79" r="0.53" fill="#fff"/><circle cx="253.83" cy="225.79" r="0.53" fill="#fff"/><circle cx="255.79" cy="225.79" r="0.53" fill="#fff"/><circle cx="242.09" cy="221.87" r="0.53" fill="#fff"/><circle cx="244.05" cy="221.87" r="0.53" fill="#fff"/><circle cx="246" cy="221.87" r="0.53" fill="#fff"/><circle cx="247.96" cy="221.87" r="0.53" fill="#fff"/><circle cx="249.92" cy="221.87" r="0.53" fill="#fff"/><circle cx="251.88" cy="221.88" r="0.53" fill="#fff"/><circle cx="253.84" cy="221.88" r="0.53" fill="#fff"/><circle cx="255.79" cy="221.88" r="0.53" fill="#fff"/><circle cx="242.09" cy="217.95" r="0.53" fill="#fff"/><circle cx="244.05" cy="217.96" r="0.53" fill="#fff"/><circle cx="246.01" cy="217.96" r="0.53" fill="#fff"/><circle cx="247.96" cy="217.96" r="0.53" fill="#fff"/><circle cx="249.92" cy="217.96" r="0.53" fill="#fff"/><circle cx="251.88" cy="217.96" r="0.53" fill="#fff"/><circle cx="253.84" cy="217.96" r="0.53" fill="#fff"/><circle cx="255.8" cy="217.96" r="0.53" fill="#fff"/><line x1="240.22" y1="215.79" x2="257.7" y2="215.8" fill="none" stroke="#fff" stroke-miterlimit="10" stroke-width="0.5"/><rect x="571.06" y="459.5" width="109" height="79" fill="#d0f1f7"/><path d="M679.56,460v78h-108V460h108m1-1h-110v80h110V459Z" fill="#0071bc"/><text transform="translate(601.61 516.73)" font-size="11" fill="#0071bc" font-family="Arial-BoldMT, Arial" font-weight="700">Database</text><path d="M636.28,495.58c0,2.23,0,1-.07,2.52,0,1.74-5,3.15-11.09,3.15S614,499.84,614,498.1c0-.76.07-1.87.07-2.52" fill="#d0f1f7"/><path d="M625.12,501.49c-5.56,0-11.32-1.27-11.32-3.39,0-.4,0-.9,0-1.37s0-.84,0-1.15h.47c0,.32,0,.73,0,1.17s0,.95,0,1.35c0,1.4,4.35,2.91,10.84,2.91s10.82-1.51,10.85-2.92c0-.63,0-.79,0-.92s0-.3,0-1.59h.48c0,.55,0,1.09,0,1.63,0,.13,0,.28,0,.89C636.41,499.74,632.43,501.49,625.12,501.49Z" fill="#0071bc"/><ellipse cx="625.19" cy="495.58" rx="11.09" ry="3.15" fill="#d0f1f7"/><path d="M625.19,499c-5.56,0-11.32-1.26-11.32-3.39s5.76-3.38,11.32-3.38,11.33,1.26,11.33,3.38S630.76,499,625.19,499Zm0-6.3c-6.49,0-10.85,1.51-10.85,2.91s4.36,2.92,10.85,2.92S636,497,636,495.58,631.68,492.67,625.19,492.67Z" fill="#0071bc"/><path d="M636.28,490.53c0,2.23,0,1-.07,2.51,0,1.74-5,3.15-11.09,3.15S614,494.78,614,493c0-.75.07-1.86.07-2.51" fill="#d0f1f7"/><path d="M625.12,496.43c-5.56,0-11.32-1.27-11.32-3.39,0-.39,0-.89,0-1.36s0-.85,0-1.15h.47c0,.31,0,.73,0,1.17s0,.95,0,1.34c0,1.41,4.35,2.92,10.84,2.92S635.94,494.45,636,493c0-.63,0-.79,0-.92s0-.3,0-1.59h.48c0,.55,0,1.09,0,1.63,0,.12,0,.28,0,.89C636.41,494.7,632.43,496.43,625.12,496.43Z" fill="#0071bc"/><ellipse cx="625.19" cy="490.53" rx="11.09" ry="3.15" fill="#d0f1f7"/><path d="M625.19,493.92c-5.56,0-11.32-1.27-11.32-3.39s5.76-3.38,11.32-3.38,11.33,1.26,11.33,3.38S630.76,493.92,625.19,493.92Zm0-6.3c-6.49,0-10.85,1.51-10.85,2.91s4.36,2.91,10.85,2.91,10.85-1.5,10.85-2.91-4.36-2.91-10.85-2.91Z" fill="#0071bc"/><path d="M636.28,485.32c0,2.23,0,1-.07,2.51,0,1.74-5,3.15-11.09,3.15S614,489.57,614,487.83c0-.76.07-1.87.07-2.51" fill="#d0f1f7"/><path d="M625.12,491.22c-5.56,0-11.32-1.27-11.32-3.39,0-.4,0-.89,0-1.36s0-.85,0-1.15h.47c0,.31,0,.72,0,1.17s0,.95,0,1.34c0,1.41,4.35,2.91,10.84,2.91s10.82-1.5,10.85-2.91c0-.63,0-.79,0-.92s0-.3,0-1.59h.48c0,.55,0,1.09,0,1.63,0,.12,0,.27,0,.89C636.41,489.48,632.43,491.22,625.12,491.22Z" fill="#0071bc"/><ellipse cx="625.19" cy="485.32" rx="11.09" ry="3.15" fill="#d0f1f7"/><path d="M625.19,488.71c-5.56,0-11.32-1.27-11.32-3.39s5.76-3.39,11.32-3.39,11.33,1.27,11.33,3.39S630.76,488.71,625.19,488.71Zm0-6.3c-6.49,0-10.85,1.51-10.85,2.91s4.36,2.91,10.85,2.91,10.85-1.5,10.85-2.91S631.68,482.41,625.19,482.41Z" fill="#0071bc"/><path d="M636.28,479.86c0,2.23,0,1-.07,2.52,0,1.73-5,3.14-11.09,3.14S614,484.12,614,482.38c0-.76.07-1.87.07-2.52" fill="#d0f1f7"/><path d="M625.12,485.76c-5.56,0-11.32-1.26-11.32-3.38,0-.4,0-.9,0-1.37s0-.84,0-1.15h.47c0,.31,0,.72,0,1.17s0,1,0,1.35c0,1.4,4.35,2.91,10.84,2.91s10.82-1.51,10.85-2.92c0-.63,0-.78,0-.92s0-.3,0-1.59h.48c0,.55,0,1.09,0,1.63,0,.13,0,.28,0,.89C636.41,484,632.43,485.76,625.12,485.76Z" fill="#0071bc"/><ellipse cx="625.19" cy="479.86" rx="11.09" ry="3.15" fill="#d0f1f7"/><path d="M625.19,483.26c-5.56,0-11.32-1.27-11.32-3.39s5.76-3.38,11.32-3.38,11.33,1.26,11.33,3.38S630.76,483.26,625.19,483.26Zm0-6.3c-6.49,0-10.85,1.51-10.85,2.91s4.36,2.91,10.85,2.91,10.85-1.5,10.85-2.91S631.68,477,625.19,477Z" fill="#0071bc"/><rect x="184.85" y="298.75" width="109" height="82.75" fill="#d0f1f7"/><path d="M293.35,299.25V381h-108V299.25h108m1-1h-110V382h110V298.25Z" fill="#0071bc"/><text transform="translate(217.35 350.73)" font-size="11" fill="#0071bc" font-family="Arial-BoldMT, Arial" font-weight="700">Bundled <tspan x="-1.85" y="13.2">database</tspan></text><path d="M250.47,329.58c0,2.23,0,1-.07,2.52,0,1.74-5,3.15-11.09,3.15s-11.08-1.41-11.08-3.15c0-.76.06-1.87.06-2.52" fill="#d0f1f7"/><path d="M239.31,335.49c-5.57,0-11.33-1.27-11.33-3.39,0-.4,0-.9,0-1.37s0-.84,0-1.15h.48c0,.32,0,.73,0,1.17s0,.95,0,1.35c0,1.4,4.36,2.91,10.85,2.91s10.82-1.51,10.85-2.92a7.45,7.45,0,0,1,0-.92c0-.14,0-.3,0-1.59h.47a14.73,14.73,0,0,1,0,1.63c0,.13,0,.28,0,.89C250.6,333.74,246.61,335.49,239.31,335.49Z" fill="#0071bc"/><ellipse cx="239.35" cy="329.58" rx="11.09" ry="3.15" fill="#d0f1f7"/><path d="M239.35,333c-5.57,0-11.33-1.26-11.33-3.39s5.76-3.38,11.33-3.38,11.32,1.26,11.32,3.38S244.91,333,239.35,333Zm0-6.3c-6.49,0-10.85,1.51-10.85,2.91s4.36,2.92,10.85,2.92,10.84-1.51,10.84-2.92S245.84,326.67,239.35,326.67Z" fill="#0071bc"/><path d="M250.47,324.53c0,2.23,0,1-.07,2.51,0,1.74-5,3.15-11.09,3.15s-11.08-1.41-11.08-3.15c0-.75.06-1.86.06-2.51" fill="#d0f1f7"/><path d="M239.31,330.43c-5.57,0-11.33-1.27-11.33-3.39,0-.39,0-.89,0-1.36s0-.85,0-1.15h.48c0,.31,0,.73,0,1.17s0,.95,0,1.34c0,1.41,4.36,2.92,10.85,2.92s10.82-1.51,10.85-2.92a7.45,7.45,0,0,1,0-.92c0-.14,0-.3,0-1.59h.47a14.73,14.73,0,0,1,0,1.63c0,.12,0,.28,0,.89C250.6,328.7,246.61,330.43,239.31,330.43Z" fill="#0071bc"/><ellipse cx="239.35" cy="324.53" rx="11.09" ry="3.15" fill="#d0f1f7"/><path d="M239.35,327.92c-5.57,0-11.33-1.27-11.33-3.39s5.76-3.38,11.33-3.38,11.32,1.26,11.32,3.38S244.91,327.92,239.35,327.92Zm0-6.3c-6.49,0-10.85,1.51-10.85,2.91s4.36,2.91,10.85,2.91,10.84-1.5,10.84-2.91-4.35-2.91-10.84-2.91Z" fill="#0071bc"/><path d="M250.47,319.32c0,2.23,0,1-.07,2.51,0,1.74-5,3.15-11.09,3.15s-11.08-1.41-11.08-3.15c0-.76.06-1.87.06-2.51" fill="#d0f1f7"/><path d="M239.31,325.22c-5.57,0-11.33-1.27-11.33-3.39,0-.4,0-.89,0-1.36s0-.85,0-1.15h.48c0,.31,0,.72,0,1.17s0,.95,0,1.34c0,1.41,4.36,2.91,10.85,2.91s10.82-1.5,10.85-2.91a7.45,7.45,0,0,1,0-.92c0-.14,0-.3,0-1.59h.47a14.73,14.73,0,0,1,0,1.63c0,.12,0,.27,0,.89C250.6,323.48,246.61,325.22,239.31,325.22Z" fill="#0071bc"/><ellipse cx="239.35" cy="319.32" rx="11.09" ry="3.15" fill="#d0f1f7"/><path d="M239.35,322.71c-5.57,0-11.33-1.27-11.33-3.39s5.76-3.39,11.33-3.39,11.32,1.27,11.32,3.39S244.91,322.71,239.35,322.71Zm0-6.3c-6.49,0-10.85,1.51-10.85,2.91s4.36,2.91,10.85,2.91,10.84-1.5,10.84-2.91S245.84,316.41,239.35,316.41Z" fill="#0071bc"/><path d="M250.47,313.86c0,2.23,0,1-.07,2.52,0,1.73-5,3.14-11.09,3.14s-11.08-1.4-11.08-3.14c0-.76.06-1.87.06-2.52" fill="#d0f1f7"/><path d="M239.31,319.76c-5.57,0-11.33-1.26-11.33-3.38,0-.4,0-.9,0-1.37s0-.84,0-1.15h.48c0,.31,0,.72,0,1.17s0,1,0,1.35c0,1.4,4.36,2.91,10.85,2.91s10.82-1.51,10.85-2.92a7.61,7.61,0,0,1,0-.92c0-.14,0-.3,0-1.59h.47a14.73,14.73,0,0,1,0,1.63c0,.13,0,.28,0,.89C250.6,318,246.61,319.76,239.31,319.76Z" fill="#0071bc"/><ellipse cx="239.35" cy="313.86" rx="11.09" ry="3.15" fill="#d0f1f7"/><path d="M239.35,317.26c-5.57,0-11.33-1.27-11.33-3.39s5.76-3.38,11.33-3.38,11.32,1.26,11.32,3.38S244.91,317.26,239.35,317.26Zm0-6.3c-6.49,0-10.85,1.51-10.85,2.91s4.36,2.91,10.85,2.91,10.84-1.5,10.84-2.91S245.84,311,239.35,311Z" fill="#0071bc"/><polygon points="109.96 173.25 109.96 78.95 112.85 78.95 109.56 73.25 106.28 78.95 109.17 78.95 109.17 173.25 109.96 173.25" fill="#1d81c4"/><path d="M496.56,187.85H392.13c-.05,0-.14,0-.17,0V77h2.89l-3.29-5.7L388.27,77h2.9V188.63s.14,0,.21,0H496.56Z" fill="#1d81c4"/><rect x="3.25" y="638.75" width="102.5" height="59.5" fill="#eee7f2"/><path d="M105.25,639.25v58.5H3.75v-58.5h101.5m1-1H2.75v60.5h103.5v-60.5Z" fill="#9160a5"/><text transform="translate(16.28 685.25)" font-size="11" fill="#9160a5" font-family="Arial-BoldMT, Arial" font-weight="700">User browsers</text><rect x="115.07" y="638.75" width="105.5" height="59.5" fill="#eee7f2"/><path d="M220.07,639.25v58.5H115.57v-58.5h104.5m1-1H114.57v60.5h106.5v-60.5Z" fill="#9160a5"/><text transform="translate(139.7 685.25)" font-size="11" fill="#9160a5" font-family="Arial-BoldMT, Arial" font-weight="700">API clients</text><path d="M56.81,657.75a5,5,0,1,0-4.62,0c-3.29,1.18-5.69,4.81-5.69,9.1a11.26,11.26,0,0,0,.42,3l.11.36H62l.1-.36a11.27,11.27,0,0,0,.43-3C62.5,662.56,60.09,658.93,56.81,657.75Zm-6.31-4.4a4,4,0,1,1,4,4A4,4,0,0,1,50.5,653.35Zm10.71,15.9H47.79a9.79,9.79,0,0,1-.29-2.4c0-4.69,3.14-8.5,7-8.5s7,3.81,7,8.5A10.3,10.3,0,0,1,61.21,669.25Z" fill="#9160a5"/><path d="M175,661.07v-3.63h-1.74a4.81,4.81,0,0,0-.29-.71l1.23-1.23-2.57-2.57-1.21,1.22a5.1,5.1,0,0,0-.73-.3v-1.72H166v1.72a4.55,4.55,0,0,0-.72.3l-1.22-1.22-2.56,2.57,1.22,1.23a5,5,0,0,0-.29.71h-1.74v3.63h1.76a5.28,5.28,0,0,0,.29.69L161.53,663l2.56,2.57,1.26-1.26a5.72,5.72,0,0,0,.68.28v1.78h3.63V664.6a5.24,5.24,0,0,0,.69-.28l1.25,1.26,2.57-2.57-1.25-1.25a4.19,4.19,0,0,0,.29-.69Zm-2.3-.73-.08.26a4.41,4.41,0,0,1-.44,1l-.13.24,1.11,1.12-1.53,1.53-1.12-1.12-.24.13a5.05,5.05,0,0,1-1,.43l-.27.07v1.6h-2.16v-1.6l-.27-.07a5.05,5.05,0,0,1-1-.43l-.24-.13-1.13,1.12L162.56,663l1.12-1.12-.14-.24a5.41,5.41,0,0,1-.44-1l-.07-.26h-1.57v-2.17H163l.08-.27a4.79,4.79,0,0,1,.43-1.07l.14-.24-1.1-1.09,1.53-1.53,1.09,1.09.24-.14a5.13,5.13,0,0,1,1.08-.45l.27-.07v-1.54h2.16v1.54l.27.07a5,5,0,0,1,1.07.45l.25.14L171.6,654l1.53,1.53L172,656.59l.13.24a4.81,4.81,0,0,1,.44,1.07l.07.27h1.56v2.17Z" fill="#9160a5"/><path d="M167.85,656.47a2.78,2.78,0,1,0,2.78,2.78A2.79,2.79,0,0,0,167.85,656.47Zm0,4.83a2,2,0,1,1,2.05-2A2.05,2.05,0,0,1,167.85,661.3Z" fill="#9160a5"/><path d="M184.23,658.92a6,6,0,0,0-4.09-1.64c-.33-2.94-2.61-5.92-5.73-5.92h-.83c-.61-3-3.39-4.11-5.86-4.11a5.67,5.67,0,0,0-5.66,4.58h-1a6.32,6.32,0,0,0-5.91,5.66,6.33,6.33,0,0,0-3.89,2,5.36,5.36,0,0,0-1.59,3.92,6,6,0,0,0,5.75,5.89h24.54a6,6,0,0,0,4.18-1.87A6.27,6.27,0,0,0,186,663,5.67,5.67,0,0,0,184.23,658.92Zm-.78,7.79a5.11,5.11,0,0,1-3.52,1.6H155.39a5,5,0,0,1-4.81-5,4.44,4.44,0,0,1,1.33-3.23,5.26,5.26,0,0,1,3.68-1.67h.49l0-.5a4.86,4.86,0,0,1,1.45-3.49,5.06,5.06,0,0,1,3.52-1.66h1.86l.05-.42a4.67,4.67,0,0,1,4.78-4.16c1.06,0,4.55.27,5,3.7l0,.41h1.65c2.7,0,4.71,2.89,4.83,5.48l0,.47.47,0a5.17,5.17,0,0,1,3.85,1.37,4.8,4.8,0,0,1,1.49,3.41A5.33,5.33,0,0,1,183.45,666.71Z" fill="#9160a5"/><text transform="translate(73.5 55.99)" font-size="11" fill="#4c5054" font-family="Arial-BoldMT, Arial" font-weight="700">portswigge<tspan x="58.67" y="0" letter-spacing="-0.06em">r</tspan><tspan x="62.34" y="0">.net</tspan></text><path d="M60.87,46.06a7,7,0,1,0,7,7A7,7,0,0,0,60.87,46.06Zm-6.65,7.18h3.07a12.73,12.73,0,0,0,.41,3.07H55.06A6.68,6.68,0,0,1,54.22,53.24Zm6.93-3.73V46.43c1,.19,1.93,1.37,2.46,3.08Zm2.56.34a12,12,0,0,1,.4,3h-3v-3Zm-2.9-.34H58.14c.56-1.83,1.55-3,2.67-3.1Zm0,.34v3H57.63a12.93,12.93,0,0,1,.4-3Zm-3.52,3H54.22a6.55,6.55,0,0,1,.83-3h2.64A13,13,0,0,0,57.29,52.89Zm.34.35h3.18v3.07H58A12.66,12.66,0,0,1,57.63,53.24Zm3.18,3.41v3.07c-1.12,0-2.1-1.26-2.67-3.07Zm.34,0H63.6c-.53,1.69-1.42,2.86-2.45,3Zm0-.34V53.24h3a12.19,12.19,0,0,1-.41,3.07Zm3.3-3.07h3.07a6.68,6.68,0,0,1-.84,3.07H64.05A12.26,12.26,0,0,0,64.45,53.24Zm0-.35a12,12,0,0,0-.4-3H66.7a6.66,6.66,0,0,1,.82,3Zm2-3.38H64a5.83,5.83,0,0,0-1.81-3A6.67,6.67,0,0,1,66.49,49.51Zm-6.89-3a5.83,5.83,0,0,0-1.81,3H55.25A6.69,6.69,0,0,1,59.6,46.53ZM55.27,56.65H57.8a5.76,5.76,0,0,0,1.8,3A6.71,6.71,0,0,1,55.27,56.65Zm6.88,3a5.76,5.76,0,0,0,1.8-3h2.52A6.69,6.69,0,0,1,62.15,59.6Z" fill="#4c5054" stroke="#4c5054" stroke-miterlimit="10" stroke-width="0.25"/><path d="M661,17.25A8.93,8.93,0,1,0,670,26.18,8.95,8.95,0,0,0,661,17.25Zm8,6.18.15.47a2.57,2.57,0,0,1-.27-.46C668.93,23.39,669,23.4,669.05,23.43Zm-.55-.88c.1,0,.34.42.4.7,0,0,0,.08,0,.08s0-.07,0-.16-.08-.06-.45-.08a.2.2,0,0,1-.17-.1C668.19,22.85,668.37,22.55,668.5,22.55Zm-8.27-4.42a.55.55,0,0,0,.39.13c.3,0,.59.17.31.17a.43.43,0,0,0-.2.06,2.2,2.2,0,0,1-.68-.35C660.07,18,660.12,18,660.23,18.13ZM653,23.37h0c0,.08,0,.17-.06.18h0Zm15.88,4.77a4,4,0,0,0-.17,1c0,.3-.06.6-.09.78a8.53,8.53,0,0,1-5.54,4.5.21.21,0,0,0-.13-.15,2,2,0,0,0-1.38-.09,8.86,8.86,0,0,1-2.18.15.23.23,0,0,0-.25.14,8.49,8.49,0,0,1-5.39-3.88,1.34,1.34,0,0,0,.37.08c.78.09,1.05.72,1.44,1.32a.35.35,0,0,0,.63-.08,3.51,3.51,0,0,0,.23-1.36c-.05-.32-.28-.48-.44-.75s-.27-.89-.39-1.06-.32-.12-.48-.11h0a0,0,0,0,0,0,0,3.21,3.21,0,0,1-.88-.1,0,0,0,0,1,0,0s0-.05,0,0,0,0,0,0l-.17,0c-.51-.12-.44.15-.42.37a1.09,1.09,0,0,0-.1.89.13.13,0,0,0-.06,0,8.32,8.32,0,0,1-.81-3.59,7.32,7.32,0,0,1,0-.81h0a3.87,3.87,0,0,0,0,.57c0,.12,0,.23.08.23s.08,0,.08-.71v0l.25.13c0,.48-.09,1.09.15,1.45a.92.92,0,0,0,.59.39,2.59,2.59,0,0,1,1.21.37.35.35,0,0,0,.51-.39,1,1,0,0,0-.5-.56c-.15-.08-.33-.11-.48-.19-.3-.17-.33-.44-.41-.74a1.38,1.38,0,0,0-.45-.7,1.11,1.11,0,0,0-.6-.79l-.06,0c-.05-.25,0-.84.13-.84s.07.07.08.16.05.11.18-.15.22-.79.09-.79-.07.08-.07.19a.59.59,0,0,1-.11.33c-.09.12-.1.12-.1,0a1.1,1.1,0,0,1,.29-.65.26.26,0,0,0,.09-.27c0-.1,0-.13,0-.1s.07,0,0-.07,0-.08-.07-.07c.08-.15.17-.29.26-.43h0c0,.06,0,.09.07.07a.2.2,0,0,0,.07-.15c0-.05,0-.07-.06-.07a8.83,8.83,0,0,1,.69-.92l0,0c0,.05.09,0,.18,0s.12-.11.1-.14a.15.15,0,0,0-.16-.05,8.26,8.26,0,0,1,2-1.63,2,2,0,0,0,.7-.3s.06-.07.14-.07a.63.63,0,0,0,.27-.06,5.21,5.21,0,0,1,.76-.27c.08,0,0,0-.12.09s-.25.15-.22.21a.07.07,0,0,1-.07.1c-.13,0-.3.2-.23.27s.1,0,.17,0,.13,0,.13.05,0,.13-.25.11a3.31,3.31,0,0,0-.69.08,4,4,0,0,1-.62.09,1.17,1.17,0,0,0-.81.55.44.44,0,0,1-.22.25c-.22.11-.32.32-.11.24s0,.06-.13.19a1.13,1.13,0,0,0-.29.37.54.54,0,0,1-.25.29c-.12.09-.21.17-.18.2a.83.83,0,0,0,.37-.19,2.37,2.37,0,0,1,.38-.23.18.18,0,0,0,.11-.09,1.62,1.62,0,0,1,.74-.37c.12,0,.16.11.13.41,0,.09,0,.16.06.16s.08-.05.08-.11,0-.09.07-.07.06.13,0,.22,0,.17,0,.17.08.28-.06.64a1.08,1.08,0,0,0,.17,1.12.57.57,0,0,1,.17.31.21.21,0,0,0,.08.17.17.17,0,0,1,0,.18.12.12,0,0,0,.07.16.19.19,0,0,1,.11.14.39.39,0,0,0,.14.23c.12.11.14.11.14,0a.19.19,0,0,0-.07-.16.12.12,0,0,1,0-.15c0-.06,0-.1,0-.1s-.11-.1-.17-.23l-.11-.23.21.25c.12.13.24.28.27.32.2.28.48.56.54.55s0,0,0,.08-.1.25.17.25.2,0,.17.07.31.3.68.32a.81.81,0,0,1,.51.17,1,1,0,0,0,.41.19c.27.06.57.29.57.44s0,.09.06.09a.32.32,0,0,1,.16.1c.14.13.56.21.54.1a.07.07,0,0,1,.07-.09.1.1,0,0,1,.1.07.15.15,0,0,0,.06.11.57.57,0,0,1,.08.3.43.43,0,0,1-.2.46,1,1,0,0,0-.26,1.13,5,5,0,0,1,.55,1.11.78.78,0,0,0,.31.26.64.64,0,0,1,.42.73,8.73,8.73,0,0,0-.13,1,1.92,1.92,0,0,1-.1.46,6.6,6.6,0,0,0-.14.67.73.73,0,0,1-.13.41s0,.05,0,.05.08,0,0,.09,0,.4.28.51.48.08.48,0-.06-.08-.12-.13-.12-.11,0-.25.14-.16.08-.2,0-.16.3-.38a2.12,2.12,0,0,1,.46-.34c.11,0,.26-.22.24-.35s0-.12.14-.1.54-.27.89-.7a1.78,1.78,0,0,1,.32-.29c.11-.06.2-.17.2-.22s.1-.14.23-.18a1.27,1.27,0,0,0,.65-.83,2,2,0,0,1,.36-.59,1,1,0,0,0,.32-.59c0-.15,0-.2-.1-.17s-.15,0-.22-.1a.42.42,0,0,0-.26-.14,2.17,2.17,0,0,1-.58-.25,1.59,1.59,0,0,0-.41-.18h0a.75.75,0,0,0-.06-.13c0-.05,0-.09,0-.11a.22.22,0,0,1-.07-.17c0-.14-.18-.29-.39-.37-.3-.26-.59-.55-.9-.79a1.71,1.71,0,0,0-1.91-.1.28.28,0,0,0-.13.16c-.11.11-.14.11-.3,0a.28.28,0,0,0-.28,0c-.28.15-.45-.06-.44-.57,0-.3-.08-.35-.52-.3-.23,0-.26,0-.19-.07s.06-.12,0-.14,0-.14.08-.26.09-.36-.09-.33l-.21,0a.24.24,0,0,0-.12.18.29.29,0,0,1-.26.21c-.29.06-.39,0-.52-.27a.66.66,0,0,1,0-.73,1.13,1.13,0,0,1,.75-.43c.09,0,.14,0,.14-.06s.14-.12.49,0a.39.39,0,0,1,.32.26c.11.26.29.44.35.34s-.06-.4-.16-.47-.08-.38.12-.55.23-.21.25-.29a2.65,2.65,0,0,1,.44-.6c.25-.19.55-.2.74-.43l.35-.17a.31.31,0,0,0,.16-.11c.05.06.06.06.06,0a.21.21,0,0,0,0-.06.31.31,0,0,0-.12-.43,4.39,4.39,0,0,1-1-.69c-.28-.3-.32-.69-.56-1a1.32,1.32,0,0,0-.59-.4l.09,0c.16-.05.24,0,.33,0a.38.38,0,0,0,.19.11.16.16,0,0,1,.12.1.17.17,0,0,0,.14.11c.06,0,.09,0,.07.09a.2.2,0,0,0,.08.19c.06.05.09.12.06.16s0,.06,0,0,.2.08.35.23.69.52.76.46a.63.63,0,0,0-.06-.3c-.12-.34-.07-.62.12-.67s.12-.06,0-.19-.12-.14-.15-.14a2,2,0,0,1-.37-.25,2.28,2.28,0,0,0-1.06-.56.1.1,0,0,1-.13-.07c0-.08.07-.1.62-.08a8.49,8.49,0,0,1,5.42,2.93l0,0a.52.52,0,0,0-.18.52c0,.25.2.34.36.5s.13.18.1.25a.5.5,0,0,0-.35.26.57.57,0,0,0,0,.34.29.29,0,0,0,0,.22.81.81,0,0,0,.16.16c0,.06,0,.08.08.07a.24.24,0,0,0,.16.05s0,0,0,0,0,.11,0,.14.07,0,.14-.06.11-.08,0,0-.07.12,0,.12,0,.06-.06.13-.1.15-.08.17-.33.33-.43.32-.07,0-.07.1a1.11,1.11,0,0,1-.14.35,1.14,1.14,0,0,0-.12.49c0,.13,0,.22,0,.2s-.05.18-.05.44,0,.46.08.45.14.09.19.22c.14.33.45.56.62.47a.44.44,0,0,1,.27,0,.29.29,0,0,0,.26-.06c.18-.14.32-.14.32,0s.06.1.14.1.15,0,.1.29a2,2,0,0,0,0,.64C669,27.89,669,28,668.9,28.14Z" fill="#4c5054"/><path d="M663.86,19.45c-.19,0-.35.12-.2.12s.07,0,.05.07,0,.05.06,0a.34.34,0,0,1,.24,0c.16.1.35.1.41,0S664.08,19.43,663.86,19.45Z" fill="#4c5054"/><path d="M667.79,23.44a.15.15,0,0,0,.07-.07s0,0-.07,0a.08.08,0,0,0-.07.08S667.75,23.47,667.79,23.44Z" fill="#4c5054"/><path d="M654.58,21.27a.08.08,0,0,0-.07.08s0,0,.07,0a.15.15,0,0,0,.07-.07S654.62,21.27,654.58,21.27Z" fill="#4c5054"/><path d="M654.15,21.66s-.07.06-.07.08,0,0,.07,0a.07.07,0,0,0,.07-.07C654.22,21.65,654.19,21.64,654.15,21.66Z" fill="#4c5054"/><path d="M652.69,26.69c0-.24-.07-.43-.1-.41s-.05.07,0,.73c0,.25.09.45.13.45s0-.08,0-.16S652.72,26.94,652.69,26.69Z" fill="#4c5054"/><path d="M686,17.25A8.93,8.93,0,1,0,695,26.18,8.95,8.95,0,0,0,686,17.25Zm8,6.18.15.47a2.57,2.57,0,0,1-.27-.46C693.93,23.39,694,23.4,694.05,23.43Zm-.55-.88c.1,0,.34.42.4.7,0,0,0,.08,0,.08s0-.07,0-.16-.08-.06-.45-.08a.2.2,0,0,1-.17-.1C693.19,22.85,693.37,22.55,693.5,22.55Zm-8.27-4.42a.55.55,0,0,0,.39.13c.3,0,.59.17.31.17a.43.43,0,0,0-.2.06,2.2,2.2,0,0,1-.68-.35C685.07,18,685.12,18,685.23,18.13ZM678,23.37h0c0,.08,0,.17-.06.18h0Zm15.88,4.77a4,4,0,0,0-.17,1c0,.3-.06.6-.09.78a8.53,8.53,0,0,1-5.54,4.5.21.21,0,0,0-.13-.15,2,2,0,0,0-1.38-.09,8.86,8.86,0,0,1-2.18.15.23.23,0,0,0-.25.14,8.49,8.49,0,0,1-5.39-3.88,1.34,1.34,0,0,0,.37.08c.78.09,1.05.72,1.44,1.32a.35.35,0,0,0,.63-.08,3.51,3.51,0,0,0,.23-1.36c-.05-.32-.28-.48-.44-.75s-.27-.89-.39-1.06-.32-.12-.48-.11h0a0,0,0,0,0,0,0,3.21,3.21,0,0,1-.88-.1,0,0,0,0,1,0,0s0-.05,0,0,0,0,0,0l-.17,0c-.51-.12-.44.15-.42.37a1.09,1.09,0,0,0-.1.89.13.13,0,0,0-.06,0,8.32,8.32,0,0,1-.81-3.59,7.32,7.32,0,0,1,0-.81h0a3.87,3.87,0,0,0,0,.57c0,.12,0,.23.08.23s.08,0,.08-.71v0l.25.13c0,.48-.09,1.09.15,1.45a.92.92,0,0,0,.59.39,2.59,2.59,0,0,1,1.21.37.35.35,0,0,0,.51-.39,1,1,0,0,0-.5-.56c-.15-.08-.33-.11-.48-.19-.3-.17-.33-.44-.41-.74a1.38,1.38,0,0,0-.45-.7,1.11,1.11,0,0,0-.6-.79l-.06,0c-.05-.25,0-.84.13-.84s.07.07.08.16.05.11.18-.15.22-.79.09-.79-.07.08-.07.19a.59.59,0,0,1-.11.33c-.09.12-.1.12-.1,0a1.1,1.1,0,0,1,.29-.65.26.26,0,0,0,.09-.27c0-.1,0-.13,0-.1s.07,0,0-.07,0-.08-.07-.07c.08-.15.17-.29.26-.43h0c0,.06,0,.09.07.07a.2.2,0,0,0,.07-.15c0-.05,0-.07-.06-.07a8.83,8.83,0,0,1,.69-.92l0,0c0,.05.09,0,.18,0s.12-.11.1-.14a.15.15,0,0,0-.16-.05,8.26,8.26,0,0,1,2-1.63,2,2,0,0,0,.7-.3s.06-.07.14-.07a.63.63,0,0,0,.27-.06,5.21,5.21,0,0,1,.76-.27c.08,0,0,0-.12.09s-.25.15-.22.21a.07.07,0,0,1-.07.1c-.13,0-.3.2-.23.27s.1,0,.17,0,.13,0,.13.05,0,.13-.25.11a3.31,3.31,0,0,0-.69.08,4,4,0,0,1-.62.09,1.17,1.17,0,0,0-.81.55.44.44,0,0,1-.22.25c-.22.11-.32.32-.11.24s0,.06-.13.19a1.13,1.13,0,0,0-.29.37.54.54,0,0,1-.25.29c-.12.09-.21.17-.18.2a.83.83,0,0,0,.37-.19,2.37,2.37,0,0,1,.38-.23.18.18,0,0,0,.11-.09,1.62,1.62,0,0,1,.74-.37c.12,0,.16.11.13.41,0,.09,0,.16.06.16s.08-.05.08-.11,0-.09.07-.07.06.13,0,.22,0,.17,0,.17.08.28-.06.64a1.08,1.08,0,0,0,.17,1.12.57.57,0,0,1,.17.31.21.21,0,0,0,.08.17.17.17,0,0,1,0,.18.12.12,0,0,0,.07.16.19.19,0,0,1,.11.14.39.39,0,0,0,.14.23c.12.11.14.11.14,0a.19.19,0,0,0-.07-.16.12.12,0,0,1,0-.15c0-.06,0-.1,0-.1s-.11-.1-.17-.23l-.11-.23.21.25c.12.13.24.28.27.32.2.28.48.56.54.55s0,0,0,.08-.1.25.17.25.2,0,.17.07.31.3.68.32a.81.81,0,0,1,.51.17,1,1,0,0,0,.41.19c.27.06.57.29.57.44s0,.09.06.09a.32.32,0,0,1,.16.1c.14.13.56.21.54.1a.07.07,0,0,1,.07-.09.1.1,0,0,1,.1.07.15.15,0,0,0,.06.11.57.57,0,0,1,.08.3.43.43,0,0,1-.2.46,1,1,0,0,0-.26,1.13,5,5,0,0,1,.55,1.11.78.78,0,0,0,.31.26.64.64,0,0,1,.42.73,8.73,8.73,0,0,0-.13,1,1.92,1.92,0,0,1-.1.46,6.6,6.6,0,0,0-.14.67.73.73,0,0,1-.13.41s0,.05,0,.05.08,0,0,.09,0,.4.28.51.48.08.48,0-.06-.08-.12-.13-.12-.11,0-.25.14-.16.08-.2,0-.16.3-.38a2.12,2.12,0,0,1,.46-.34c.11,0,.26-.22.24-.35s0-.12.14-.1.54-.27.89-.7a1.78,1.78,0,0,1,.32-.29c.11-.06.2-.17.2-.22s.1-.14.23-.18a1.27,1.27,0,0,0,.65-.83,2,2,0,0,1,.36-.59,1,1,0,0,0,.32-.59c0-.15,0-.2-.1-.17s-.15,0-.22-.1a.42.42,0,0,0-.26-.14,2.17,2.17,0,0,1-.58-.25,1.59,1.59,0,0,0-.41-.18h0a.75.75,0,0,0-.06-.13c0-.05,0-.09,0-.11a.22.22,0,0,1-.07-.17c0-.14-.18-.29-.39-.37-.3-.26-.59-.55-.9-.79a1.71,1.71,0,0,0-1.91-.1.28.28,0,0,0-.13.16c-.11.11-.14.11-.3,0a.28.28,0,0,0-.28,0c-.28.15-.45-.06-.44-.57,0-.3-.08-.35-.52-.3-.23,0-.26,0-.19-.07s.06-.12,0-.14,0-.14.08-.26.09-.36-.09-.33l-.21,0a.24.24,0,0,0-.12.18.29.29,0,0,1-.26.21c-.29.06-.39,0-.52-.27a.66.66,0,0,1,0-.73,1.13,1.13,0,0,1,.75-.43c.09,0,.14,0,.14-.06s.14-.12.49,0a.39.39,0,0,1,.32.26c.11.26.29.44.35.34s-.06-.4-.16-.47-.08-.38.12-.55.23-.21.25-.29a2.65,2.65,0,0,1,.44-.6c.25-.19.55-.2.74-.43l.35-.17a.31.31,0,0,0,.16-.11c.05.06.06.06.06,0a.21.21,0,0,0,0-.06.31.31,0,0,0-.12-.43,4.39,4.39,0,0,1-1-.69c-.28-.3-.32-.69-.56-1a1.32,1.32,0,0,0-.59-.4l.09,0c.16-.05.24,0,.33,0a.38.38,0,0,0,.19.11.16.16,0,0,1,.12.1.17.17,0,0,0,.14.11c.06,0,.09,0,.07.09a.2.2,0,0,0,.08.19c.06.05.09.12.06.16s0,.06,0,0,.2.08.35.23.69.52.76.46a.63.63,0,0,0-.06-.3c-.12-.34-.07-.62.12-.67s.12-.06,0-.19-.12-.14-.15-.14a2,2,0,0,1-.37-.25,2.28,2.28,0,0,0-1.06-.56.1.1,0,0,1-.13-.07c0-.08.07-.1.62-.08a8.49,8.49,0,0,1,5.42,2.93l0,0a.52.52,0,0,0-.18.52c0,.25.2.34.36.5s.13.18.1.25a.5.5,0,0,0-.35.26.57.57,0,0,0,0,.34.29.29,0,0,0,0,.22.81.81,0,0,0,.16.16c0,.06,0,.08.08.07a.24.24,0,0,0,.16.05s0,0,0,0,0,.11,0,.14.07,0,.14-.06.11-.08,0,0-.07.12,0,.12,0,.06-.06.13-.1.15-.08.17-.33.33-.43.32-.07,0-.07.1a1.11,1.11,0,0,1-.14.35,1.14,1.14,0,0,0-.12.49c0,.13,0,.22,0,.2s-.05.18-.05.44,0,.46.08.45.14.09.19.22c.14.33.45.56.62.47a.44.44,0,0,1,.27,0,.29.29,0,0,0,.26-.06c.18-.14.32-.14.32,0s.06.1.14.1.15,0,.1.29a2,2,0,0,0,0,.64C694,27.89,694,28,693.9,28.14Z" fill="#4c5054"/><path d="M688.86,19.45c-.19,0-.35.12-.2.12s.07,0,.05.07,0,.05.06,0a.34.34,0,0,1,.24,0c.16.1.35.1.41,0S689.08,19.43,688.86,19.45Z" fill="#4c5054"/><path d="M692.79,23.44a.15.15,0,0,0,.07-.07s0,0-.07,0a.08.08,0,0,0-.07.08S692.75,23.47,692.79,23.44Z" fill="#4c5054"/><path d="M679.58,21.27a.08.08,0,0,0-.07.08s0,0,.07,0a.15.15,0,0,0,.07-.07S679.62,21.27,679.58,21.27Z" fill="#4c5054"/><path d="M679.15,21.66s-.07.06-.07.08,0,0,.07,0a.07.07,0,0,0,.07-.07C679.22,21.65,679.19,21.64,679.15,21.66Z" fill="#4c5054"/><path d="M677.69,26.69c0-.24-.07-.43-.1-.41s-.05.07,0,.73c0,.25.09.45.13.45s0-.08,0-.16S677.72,26.94,677.69,26.69Z" fill="#4c5054"/><path d="M711,17.25A8.93,8.93,0,1,0,720,26.18,8.95,8.95,0,0,0,711,17.25Zm8,6.18.15.47a2.57,2.57,0,0,1-.27-.46C718.93,23.39,719,23.4,719.05,23.43Zm-.55-.88c.1,0,.34.42.4.7,0,0,0,.08,0,.08s0-.07,0-.16-.08-.06-.45-.08a.2.2,0,0,1-.17-.1C718.19,22.85,718.37,22.55,718.5,22.55Zm-8.27-4.42a.55.55,0,0,0,.39.13c.3,0,.59.17.31.17a.43.43,0,0,0-.2.06,2.2,2.2,0,0,1-.68-.35C710.07,18,710.12,18,710.23,18.13ZM703,23.37h0c0,.08,0,.17-.06.18h0Zm15.88,4.77a4,4,0,0,0-.17,1c0,.3-.06.6-.09.78a8.53,8.53,0,0,1-5.54,4.5.21.21,0,0,0-.13-.15,2,2,0,0,0-1.38-.09,8.86,8.86,0,0,1-2.18.15.23.23,0,0,0-.25.14,8.49,8.49,0,0,1-5.39-3.88,1.34,1.34,0,0,0,.37.08c.78.09,1.05.72,1.44,1.32a.35.35,0,0,0,.63-.08,3.51,3.51,0,0,0,.23-1.36c-.05-.32-.28-.48-.44-.75s-.27-.89-.39-1.06-.32-.12-.48-.11h0a0,0,0,0,0,0,0,3.21,3.21,0,0,1-.88-.1,0,0,0,0,1,0,0s0-.05,0,0,0,0,0,0l-.17,0c-.51-.12-.44.15-.42.37a1.09,1.09,0,0,0-.1.89.13.13,0,0,0-.06,0,8.32,8.32,0,0,1-.81-3.59,7.32,7.32,0,0,1,0-.81h0a3.87,3.87,0,0,0,0,.57c0,.12,0,.23.08.23s.08,0,.08-.71v0l.25.13c0,.48-.09,1.09.15,1.45a.92.92,0,0,0,.59.39,2.59,2.59,0,0,1,1.21.37.35.35,0,0,0,.51-.39,1,1,0,0,0-.5-.56c-.15-.08-.33-.11-.48-.19-.3-.17-.33-.44-.41-.74a1.38,1.38,0,0,0-.45-.7,1.11,1.11,0,0,0-.6-.79l-.06,0c-.05-.25,0-.84.13-.84s.07.07.08.16.05.11.18-.15.22-.79.09-.79-.07.08-.07.19a.59.59,0,0,1-.11.33c-.09.12-.1.12-.1,0a1.1,1.1,0,0,1,.29-.65.26.26,0,0,0,.09-.27c0-.1,0-.13,0-.1s.07,0,0-.07,0-.08-.07-.07c.08-.15.17-.29.26-.43h0c0,.06,0,.09.07.07a.2.2,0,0,0,.07-.15c0-.05,0-.07-.06-.07a8.83,8.83,0,0,1,.69-.92l0,0c0,.05.09,0,.18,0s.12-.11.1-.14a.15.15,0,0,0-.16-.05,8.26,8.26,0,0,1,2-1.63,2,2,0,0,0,.7-.3s.06-.07.14-.07a.63.63,0,0,0,.27-.06,5.21,5.21,0,0,1,.76-.27c.08,0,0,0-.12.09s-.25.15-.22.21a.07.07,0,0,1-.07.1c-.13,0-.3.2-.23.27s.1,0,.17,0,.13,0,.13.05,0,.13-.25.11a3.31,3.31,0,0,0-.69.08,4,4,0,0,1-.62.09,1.17,1.17,0,0,0-.81.55.44.44,0,0,1-.22.25c-.22.11-.32.32-.11.24s0,.06-.13.19a1.13,1.13,0,0,0-.29.37.54.54,0,0,1-.25.29c-.12.09-.21.17-.18.2a.83.83,0,0,0,.37-.19,2.37,2.37,0,0,1,.38-.23.18.18,0,0,0,.11-.09,1.62,1.62,0,0,1,.74-.37c.12,0,.16.11.13.41,0,.09,0,.16.06.16s.08-.05.08-.11,0-.09.07-.07.06.13,0,.22,0,.17,0,.17.08.28-.06.64a1.08,1.08,0,0,0,.17,1.12.57.57,0,0,1,.17.31.21.21,0,0,0,.08.17.17.17,0,0,1,0,.18.12.12,0,0,0,.07.16.19.19,0,0,1,.11.14.39.39,0,0,0,.14.23c.12.11.14.11.14,0a.19.19,0,0,0-.07-.16.12.12,0,0,1,0-.15c0-.06,0-.1,0-.1s-.11-.1-.17-.23l-.11-.23.21.25c.12.13.24.28.27.32.2.28.48.56.54.55s0,0,0,.08-.1.25.17.25.2,0,.17.07.31.3.68.32a.81.81,0,0,1,.51.17,1,1,0,0,0,.41.19c.27.06.57.29.57.44s0,.09.06.09a.32.32,0,0,1,.16.1c.14.13.56.21.54.1a.07.07,0,0,1,.07-.09.1.1,0,0,1,.1.07.15.15,0,0,0,.06.11.57.57,0,0,1,.08.3.43.43,0,0,1-.2.46,1,1,0,0,0-.26,1.13,5,5,0,0,1,.55,1.11.78.78,0,0,0,.31.26.64.64,0,0,1,.42.73,8.73,8.73,0,0,0-.13,1,1.92,1.92,0,0,1-.1.46,6.6,6.6,0,0,0-.14.67.73.73,0,0,1-.13.41s0,.05,0,.05.08,0,0,.09,0,.4.28.51.48.08.48,0-.06-.08-.12-.13-.12-.11,0-.25.14-.16.08-.2,0-.16.3-.38a2.12,2.12,0,0,1,.46-.34c.11,0,.26-.22.24-.35s0-.12.14-.1.54-.27.89-.7a1.78,1.78,0,0,1,.32-.29c.11-.06.2-.17.2-.22s.1-.14.23-.18a1.27,1.27,0,0,0,.65-.83,2,2,0,0,1,.36-.59,1,1,0,0,0,.32-.59c0-.15,0-.2-.1-.17s-.15,0-.22-.1a.42.42,0,0,0-.26-.14,2.17,2.17,0,0,1-.58-.25,1.59,1.59,0,0,0-.41-.18h0a.75.75,0,0,0-.06-.13c0-.05,0-.09,0-.11a.22.22,0,0,1-.07-.17c0-.14-.18-.29-.39-.37-.3-.26-.59-.55-.9-.79a1.71,1.71,0,0,0-1.91-.1.28.28,0,0,0-.13.16c-.11.11-.14.11-.3,0a.28.28,0,0,0-.28,0c-.28.15-.45-.06-.44-.57,0-.3-.08-.35-.52-.3-.23,0-.26,0-.19-.07s.06-.12,0-.14,0-.14.08-.26.09-.36-.09-.33l-.21,0a.24.24,0,0,0-.12.18.29.29,0,0,1-.26.21c-.29.06-.39,0-.52-.27a.66.66,0,0,1,0-.73,1.13,1.13,0,0,1,.75-.43c.09,0,.14,0,.14-.06s.14-.12.49,0a.39.39,0,0,1,.32.26c.11.26.29.44.35.34s-.06-.4-.16-.47-.08-.38.12-.55.23-.21.25-.29a2.65,2.65,0,0,1,.44-.6c.25-.19.55-.2.74-.43l.35-.17a.31.31,0,0,0,.16-.11c.05.06.06.06.06,0a.21.21,0,0,0,0-.06.31.31,0,0,0-.12-.43,4.39,4.39,0,0,1-1-.69c-.28-.3-.32-.69-.56-1a1.32,1.32,0,0,0-.59-.4l.09,0c.16-.05.24,0,.33,0a.38.38,0,0,0,.19.11.16.16,0,0,1,.12.1.17.17,0,0,0,.14.11c.06,0,.09,0,.07.09a.2.2,0,0,0,.08.19c.06.05.09.12.06.16s0,.06,0,0,.2.08.35.23.69.52.76.46a.63.63,0,0,0-.06-.3c-.12-.34-.07-.62.12-.67s.12-.06,0-.19-.12-.14-.15-.14a2,2,0,0,1-.37-.25,2.28,2.28,0,0,0-1.06-.56.1.1,0,0,1-.13-.07c0-.08.07-.1.62-.08a8.49,8.49,0,0,1,5.42,2.93l0,0a.52.52,0,0,0-.18.52c0,.25.2.34.36.5s.13.18.1.25a.5.5,0,0,0-.35.26.57.57,0,0,0,0,.34.29.29,0,0,0,0,.22.81.81,0,0,0,.16.16c0,.06,0,.08.08.07a.24.24,0,0,0,.16.05s0,0,0,0,0,.11,0,.14.07,0,.14-.06.11-.08,0,0-.07.12,0,.12,0,.06-.06.13-.1.15-.08.17-.33.33-.43.32-.07,0-.07.1a1.11,1.11,0,0,1-.14.35,1.14,1.14,0,0,0-.12.49c0,.13,0,.22,0,.2s-.05.18-.05.44,0,.46.08.45.14.09.19.22c.14.33.45.56.62.47a.44.44,0,0,1,.27,0,.29.29,0,0,0,.26-.06c.18-.14.32-.14.32,0s.06.1.14.1.15,0,.1.29a2,2,0,0,0,0,.64C719,27.89,719,28,718.9,28.14Z" fill="#4c5054"/><path d="M713.86,19.45c-.19,0-.35.12-.2.12s.07,0,.05.07,0,.05.06,0a.34.34,0,0,1,.24,0c.16.1.35.1.41,0S714.08,19.43,713.86,19.45Z" fill="#4c5054"/><path d="M717.79,23.44a.15.15,0,0,0,.07-.07s0,0-.07,0a.08.08,0,0,0-.07.08S717.75,23.47,717.79,23.44Z" fill="#4c5054"/><path d="M704.58,21.27a.08.08,0,0,0-.07.08s0,0,.07,0a.15.15,0,0,0,.07-.07S704.62,21.27,704.58,21.27Z" fill="#4c5054"/><path d="M704.15,21.66s-.07.06-.07.08,0,0,.07,0a.07.07,0,0,0,.07-.07C704.22,21.65,704.19,21.64,704.15,21.66Z" fill="#4c5054"/><path d="M702.69,26.69c0-.24-.07-.43-.1-.41s-.05.07,0,.73c0,.25.09.45.13.45s0-.08,0-.16S702.72,26.94,702.69,26.69Z" fill="#4c5054"/></svg>