<svg xmlns="http://www.w3.org/2000/svg" width="807" height="250" viewBox="0 0 807 250"><title>enterprise-3</title><rect x="381.38" y="128.5" width="109" height="83" fill="#ebf0f2"/><path d="M489.88,129v82h-108V129h108m1-1h-110v84h110V128Z" fill="#4c5054"/><text transform="translate(420.3 168)" font-size="11" fill="#4c5054" font-family="Arial-BoldMT, Arial" font-weight="700">Agent</text><rect x="388.88" y="179" width="94" height="24" fill="#f63"/><text transform="translate(399.74 194)" font-size="11" fill="#fff" font-family="Arial-BoldMT, Arial" font-weight="700">Burp Scanner</text><path d="M434.84,147.84a1.58,1.58,0,1,0-1.58,1.61A1.6,1.6,0,0,0,434.84,147.84Zm-2.36,0a.78.78,0,1,1,.78.81A.79.79,0,0,1,432.48,147.84Z" fill="#4c5054"/><path d="M438.84,146.23a1.61,1.61,0,1,0,1.58,1.61A1.6,1.6,0,0,0,438.84,146.23Zm0,2.42a.81.81,0,1,1,.78-.81A.79.79,0,0,1,438.84,148.65Z" fill="#4c5054"/><path d="M445.88,145.63h-2.32v-3h-7.24v-.77l1.43-2.13h-1.43v-1h-.8l.74-1.08V136h-.8v1.41L434,139.54h1.52v1h.74l-.74,1.09v1h-7.33v3h-2.31V153h2.31v3h15.37v-3h2.32Zm-19.2,6.61v-5.81h1.51v5.81Zm16.08,3H429V143.47h13.77V155.2Zm2.32-3h-1.52v-5.81h1.52Z" fill="#4c5054"/><rect x="432.96" y="151.38" width="6.17" height="0.8" fill="#4c5054"/><rect x="381.38" y="34.5" width="109" height="83" fill="#ebf0f2"/><path d="M489.88,35v82h-108V35h108m1-1h-110v84h110V34Z" fill="#4c5054"/><text transform="translate(420.3 74)" font-size="11" fill="#4c5054" font-family="Arial-BoldMT, Arial" font-weight="700">Agent</text><rect x="388.88" y="85" width="94" height="24" fill="#f63"/><text transform="translate(399.74 100)" font-size="11" fill="#fff" font-family="Arial-BoldMT, Arial" font-weight="700">Burp Scanner</text><path d="M434.84,53.84a1.58,1.58,0,1,0-1.58,1.61A1.6,1.6,0,0,0,434.84,53.84Zm-2.36,0a.78.78,0,1,1,.78.81A.79.79,0,0,1,432.48,53.84Z" fill="#4c5054"/><path d="M438.84,52.23a1.61,1.61,0,1,0,1.58,1.61A1.6,1.6,0,0,0,438.84,52.23Zm0,2.42a.81.81,0,1,1,.78-.81A.79.79,0,0,1,438.84,54.65Z" fill="#4c5054"/><path d="M445.88,51.63h-2.32v-3h-7.24V47.9l1.43-2.13h-1.43v-1h-.8l.74-1.08V42h-.8v1.41L434,45.54h1.52v1h.74l-.74,1.09v1h-7.33v3h-2.31V59h2.31v3h15.37V59h2.32Zm-19.2,6.61V52.43h1.51v5.81Zm16.08,3H429V49.47h13.77V61.2Zm2.32-3h-1.52V52.43h1.52Z" fill="#4c5054"/><rect x="432.96" y="57.38" width="6.17" height="0.8" fill="#4c5054"/><rect x="202.38" y="129.5" width="109" height="83.25" fill="#fcf1e0"/><path d="M310.88,130v82.25h-108V130h108m1-1h-110v84.25h110V129Z" fill="#ef9900"/><text transform="translate(227.26 188)" font-size="11" fill="#ef9900" font-family="Arial-BoldMT, Arial" font-weight="700"><tspan letter-spacing="-0.02em">W</tspan><tspan x="10.18" y="0">eb server</tspan></text><path d="M256.89,147.5a12.5,12.5,0,1,0,0,25h0a12.5,12.5,0,0,0,0-25Zm9,4.74a6.39,6.39,0,0,1-1.72,1.66,9.2,9.2,0,0,1-1.57.85,16.91,16.91,0,0,0-1.93-3.93,16.33,16.33,0,0,0-2.13-2.59,11.78,11.78,0,0,1,6.75,3.37C265.5,151.81,265.7,152,265.89,152.24Zm-8.37,19.63-.34,0v-7.66A15.18,15.18,0,0,1,262,165a15.92,15.92,0,0,1-1.86,3.79A14.77,14.77,0,0,1,257.52,171.87ZM251.74,165a14.68,14.68,0,0,1,4.83-.8v7.66l-.34,0A16,16,0,0,1,251.74,165Zm4.51-16.9h.33v7.65a15.2,15.2,0,0,1-4.84-.8,16.4,16.4,0,0,1,1.86-3.8A14.66,14.66,0,0,1,256.25,148.13ZM262,155a15.2,15.2,0,0,1-4.84.8v-7.65h.34A16.15,16.15,0,0,1,262,155Zm-4.84,1.42a15.57,15.57,0,0,0,5-.82,15,15,0,0,1,.63,4.13h-5.65Zm-.61,0v3.31h-5.66a15.7,15.7,0,0,1,.63-4.13A15.94,15.94,0,0,0,256.58,156.39Zm-6.27,3.3H245a11.73,11.73,0,0,1,2.48-7,8.11,8.11,0,0,0,3.5,2.61A16.34,16.34,0,0,0,250.31,159.69Zm0,.61a16.48,16.48,0,0,0,.67,4.36,8,8,0,0,0-3.51,2.61,11.77,11.77,0,0,1-2.47-7Zm.61,0h5.65v3.31a15.62,15.62,0,0,0-5,.82A15.91,15.91,0,0,1,250.92,160.3Zm6.27,3.32v-3.31h5.65a15.64,15.64,0,0,1-.63,4.13A15.67,15.67,0,0,0,257.19,163.62Zm6.26-3.31h5.32a11.9,11.9,0,0,1-2.48,7,8.15,8.15,0,0,0-3.51-2.62A16.34,16.34,0,0,0,263.45,160.31Zm0-.61a16.09,16.09,0,0,0-.66-4.36,8,8,0,0,0,3.5-2.6,11.8,11.8,0,0,1,2.48,7Zm-15-8.11a11.76,11.76,0,0,1,6.75-3.36,16.33,16.33,0,0,0-2.13,2.59,17,17,0,0,0-1.93,3.92,9.2,9.2,0,0,1-1.57-.85,6.39,6.39,0,0,1-1.72-1.66C248.07,152,248.27,151.8,248.48,151.59Zm-.61,16.17a7.43,7.43,0,0,1,3.29-2.5,17,17,0,0,0,1.93,3.92,16.33,16.33,0,0,0,2.13,2.59,11.78,11.78,0,0,1-6.75-3.37C248.26,168.2,248.06,168,247.87,167.76Zm17.41.65a11.78,11.78,0,0,1-6.75,3.37,16.81,16.81,0,0,0,2.13-2.59,16.52,16.52,0,0,0,1.93-3.93,8.5,8.5,0,0,1,1.57.85,6.23,6.23,0,0,1,1.72,1.66C265.69,168,265.49,168.21,265.28,168.41Z" fill="#ffaf10"/><rect x="202.38" y="36" width="109" height="82.5" fill="#bfe2d9"/><path d="M310.88,36.5V118h-108V36.5h108m1-1h-110V119h110V35.5Z" fill="#159c80"/><text transform="translate(229.68 93)" font-size="11" fill="#159c80" font-family="Arial-BoldMT, Arial" font-weight="700">Enterprise<tspan x="10.69" y="13.2">server</tspan></text><rect x="241.39" y="45.83" width="14.76" height="31.37" fill="#159c80" stroke="#159c80" stroke-miterlimit="10" stroke-width="0.5"/><line x1="241.39" y1="56.1" x2="256.15" y2="56.1" fill="none" stroke="#fff" stroke-miterlimit="10" stroke-width="0.5"/><line x1="241.39" y1="59.28" x2="256.15" y2="59.29" fill="none" stroke="#fff" stroke-miterlimit="10" stroke-width="0.5"/><line x1="241.39" y1="52.81" x2="256.15" y2="52.82" fill="none" stroke="#fff" stroke-miterlimit="10" stroke-width="0.5"/><line x1="241.38" y1="69.17" x2="256.14" y2="69.18" fill="none" stroke="#fff" stroke-miterlimit="10" stroke-width="0.5"/><line x1="241.38" y1="72.31" x2="256.14" y2="72.31" fill="none" stroke="#fff" stroke-miterlimit="10" stroke-width="0.5"/><line x1="241.39" y1="62.6" x2="256.15" y2="62.61" fill="none" stroke="#fff" stroke-miterlimit="10" stroke-width="0.5"/><line x1="241.39" y1="65.94" x2="256.15" y2="65.95" fill="none" stroke="#fff" stroke-miterlimit="10" stroke-width="0.5"/><circle cx="242.96" cy="70.86" r="0.45" fill="#fff"/><circle cx="244.62" cy="70.86" r="0.45" fill="#fff"/><circle cx="246.27" cy="70.86" r="0.45" fill="#fff"/><circle cx="247.92" cy="70.86" r="0.45" fill="#fff"/><circle cx="249.58" cy="70.86" r="0.45" fill="#fff"/><circle cx="251.23" cy="70.86" r="0.45" fill="#fff"/><circle cx="252.88" cy="70.86" r="0.45" fill="#fff"/><circle cx="254.54" cy="70.87" r="0.45" fill="#fff"/><circle cx="242.96" cy="67.55" r="0.45" fill="#fff"/><circle cx="244.62" cy="67.55" r="0.45" fill="#fff"/><circle cx="246.27" cy="67.55" r="0.45" fill="#fff"/><circle cx="247.92" cy="67.55" r="0.45" fill="#fff"/><circle cx="249.58" cy="67.56" r="0.45" fill="#fff"/><circle cx="251.23" cy="67.56" r="0.45" fill="#fff"/><circle cx="252.89" cy="67.56" r="0.45" fill="#fff"/><circle cx="254.54" cy="67.56" r="0.45" fill="#fff"/><circle cx="242.97" cy="64.24" r="0.45" fill="#fff"/><circle cx="244.62" cy="64.25" r="0.45" fill="#fff"/><circle cx="246.27" cy="64.25" r="0.45" fill="#fff"/><circle cx="247.93" cy="64.25" r="0.45" fill="#fff"/><circle cx="249.58" cy="64.25" r="0.45" fill="#fff"/><circle cx="251.23" cy="64.25" r="0.45" fill="#fff"/><circle cx="252.89" cy="64.25" r="0.45" fill="#fff"/><circle cx="254.54" cy="64.25" r="0.45" fill="#fff"/><circle cx="242.97" cy="60.94" r="0.45" fill="#fff"/><circle cx="244.62" cy="60.94" r="0.45" fill="#fff"/><circle cx="246.27" cy="60.94" r="0.45" fill="#fff"/><circle cx="247.93" cy="60.94" r="0.45" fill="#fff"/><circle cx="249.58" cy="60.94" r="0.45" fill="#fff"/><circle cx="251.24" cy="60.94" r="0.45" fill="#fff"/><circle cx="252.89" cy="60.94" r="0.45" fill="#fff"/><circle cx="254.54" cy="60.94" r="0.45" fill="#fff"/><circle cx="242.97" cy="57.63" r="0.45" fill="#fff"/><circle cx="244.62" cy="57.63" r="0.45" fill="#fff"/><circle cx="246.28" cy="57.63" r="0.45" fill="#fff"/><circle cx="247.93" cy="57.63" r="0.45" fill="#fff"/><circle cx="249.58" cy="57.63" r="0.45" fill="#fff"/><circle cx="251.24" cy="57.63" r="0.45" fill="#fff"/><circle cx="252.89" cy="57.64" r="0.45" fill="#fff"/><circle cx="254.54" cy="57.64" r="0.45" fill="#fff"/><circle cx="242.97" cy="54.32" r="0.45" fill="#fff"/><circle cx="244.62" cy="54.32" r="0.45" fill="#fff"/><circle cx="246.28" cy="54.32" r="0.45" fill="#fff"/><circle cx="247.93" cy="54.33" r="0.45" fill="#fff"/><circle cx="249.59" cy="54.33" r="0.45" fill="#fff"/><circle cx="251.24" cy="54.33" r="0.45" fill="#fff"/><circle cx="252.89" cy="54.33" r="0.45" fill="#fff"/><circle cx="254.55" cy="54.33" r="0.45" fill="#fff"/><circle cx="242.97" cy="51.02" r="0.45" fill="#fff"/><circle cx="244.63" cy="51.02" r="0.45" fill="#fff"/><circle cx="246.28" cy="51.02" r="0.45" fill="#fff"/><circle cx="247.93" cy="51.02" r="0.45" fill="#fff"/><circle cx="249.59" cy="51.02" r="0.45" fill="#fff"/><circle cx="251.24" cy="51.02" r="0.45" fill="#fff"/><circle cx="252.89" cy="51.02" r="0.45" fill="#fff"/><circle cx="254.55" cy="51.02" r="0.45" fill="#fff"/><line x1="241.39" y1="49.19" x2="256.15" y2="49.2" fill="none" stroke="#fff" stroke-miterlimit="10" stroke-width="0.5"/><rect x="257.61" y="45.84" width="14.76" height="31.37" fill="#159c80" stroke="#159c80" stroke-miterlimit="10" stroke-width="0.5"/><line x1="257.62" y1="56.11" x2="272.38" y2="56.11" fill="none" stroke="#fff" stroke-miterlimit="10" stroke-width="0.5"/><line x1="257.62" y1="59.29" x2="272.38" y2="59.3" fill="none" stroke="#fff" stroke-miterlimit="10" stroke-width="0.5"/><line x1="257.62" y1="52.82" x2="272.38" y2="52.83" fill="none" stroke="#fff" stroke-miterlimit="10" stroke-width="0.5"/><line x1="257.61" y1="69.18" x2="272.37" y2="69.19" fill="none" stroke="#fff" stroke-miterlimit="10" stroke-width="0.5"/><line x1="257.61" y1="72.31" x2="272.37" y2="72.32" fill="none" stroke="#fff" stroke-miterlimit="10" stroke-width="0.5"/><line x1="257.61" y1="62.61" x2="272.37" y2="62.62" fill="none" stroke="#fff" stroke-miterlimit="10" stroke-width="0.5"/><line x1="257.61" y1="65.95" x2="272.37" y2="65.96" fill="none" stroke="#fff" stroke-miterlimit="10" stroke-width="0.5"/><circle cx="259.19" cy="70.87" r="0.45" fill="#fff"/><circle cx="260.84" cy="70.87" r="0.45" fill="#fff"/><circle cx="262.5" cy="70.87" r="0.45" fill="#fff"/><circle cx="264.15" cy="70.87" r="0.45" fill="#fff"/><circle cx="265.8" cy="70.87" r="0.45" fill="#fff"/><circle cx="267.46" cy="70.87" r="0.45" fill="#fff"/><circle cx="269.11" cy="70.87" r="0.45" fill="#fff"/><circle cx="270.76" cy="70.87" r="0.45" fill="#fff"/><circle cx="259.19" cy="67.56" r="0.45" fill="#fff"/><circle cx="260.84" cy="67.56" r="0.45" fill="#fff"/><circle cx="262.5" cy="67.56" r="0.45" fill="#fff"/><circle cx="264.15" cy="67.56" r="0.45" fill="#fff"/><circle cx="265.8" cy="67.56" r="0.45" fill="#fff"/><circle cx="267.46" cy="67.57" r="0.45" fill="#fff"/><circle cx="269.11" cy="67.57" r="0.45" fill="#fff"/><circle cx="270.77" cy="67.57" r="0.45" fill="#fff"/><circle cx="259.19" cy="64.25" r="0.45" fill="#fff"/><circle cx="260.85" cy="64.25" r="0.45" fill="#fff"/><circle cx="262.5" cy="64.26" r="0.45" fill="#fff"/><circle cx="264.15" cy="64.26" r="0.45" fill="#fff"/><circle cx="265.81" cy="64.26" r="0.45" fill="#fff"/><circle cx="267.46" cy="64.26" r="0.45" fill="#fff"/><circle cx="269.11" cy="64.26" r="0.45" fill="#fff"/><circle cx="270.77" cy="64.26" r="0.45" fill="#fff"/><circle cx="259.19" cy="60.95" r="0.45" fill="#fff"/><circle cx="260.85" cy="60.95" r="0.45" fill="#fff"/><circle cx="262.5" cy="60.95" r="0.45" fill="#fff"/><circle cx="264.15" cy="60.95" r="0.45" fill="#fff"/><circle cx="265.81" cy="60.95" r="0.45" fill="#fff"/><circle cx="267.46" cy="60.95" r="0.45" fill="#fff"/><circle cx="269.12" cy="60.95" r="0.45" fill="#fff"/><circle cx="270.77" cy="60.95" r="0.45" fill="#fff"/><circle cx="259.2" cy="57.64" r="0.45" fill="#fff"/><circle cx="260.85" cy="57.64" r="0.45" fill="#fff"/><circle cx="262.5" cy="57.64" r="0.45" fill="#fff"/><circle cx="264.16" cy="57.64" r="0.45" fill="#fff"/><circle cx="265.81" cy="57.64" r="0.45" fill="#fff"/><circle cx="267.46" cy="57.64" r="0.45" fill="#fff"/><circle cx="269.12" cy="57.64" r="0.45" fill="#fff"/><circle cx="270.77" cy="57.65" r="0.45" fill="#fff"/><circle cx="259.2" cy="54.33" r="0.45" fill="#fff"/><circle cx="260.85" cy="54.33" r="0.45" fill="#fff"/><circle cx="262.5" cy="54.33" r="0.45" fill="#fff"/><circle cx="264.16" cy="54.33" r="0.45" fill="#fff"/><circle cx="265.81" cy="54.34" r="0.45" fill="#fff"/><circle cx="267.47" cy="54.34" r="0.45" fill="#fff"/><circle cx="269.12" cy="54.34" r="0.45" fill="#fff"/><circle cx="270.77" cy="54.34" r="0.45" fill="#fff"/><circle cx="259.2" cy="51.02" r="0.45" fill="#fff"/><circle cx="260.85" cy="51.03" r="0.45" fill="#fff"/><circle cx="262.51" cy="51.03" r="0.45" fill="#fff"/><circle cx="264.16" cy="51.03" r="0.45" fill="#fff"/><circle cx="265.81" cy="51.03" r="0.45" fill="#fff"/><circle cx="267.47" cy="51.03" r="0.45" fill="#fff"/><circle cx="269.12" cy="51.03" r="0.45" fill="#fff"/><circle cx="270.77" cy="51.03" r="0.45" fill="#fff"/><line x1="257.62" y1="49.2" x2="272.38" y2="49.21" fill="none" stroke="#fff" stroke-miterlimit="10" stroke-width="0.5"/><rect x="502.38" y="128.5" width="109" height="83" fill="#ebf0f2"/><path d="M610.88,129v82h-108V129h108m1-1h-110v84h110V128Z" fill="#4c5054"/><text transform="translate(541.3 168)" font-size="11" fill="#4c5054" font-family="Arial-BoldMT, Arial" font-weight="700">Agent</text><rect x="509.88" y="179" width="94" height="24" fill="#f63"/><text transform="translate(520.74 194)" font-size="11" fill="#fff" font-family="Arial-BoldMT, Arial" font-weight="700">Burp Scanner</text><path d="M555.84,147.84a1.58,1.58,0,1,0-1.58,1.61A1.6,1.6,0,0,0,555.84,147.84Zm-2.36,0a.78.78,0,1,1,.78.81A.79.79,0,0,1,553.48,147.84Z" fill="#4c5054"/><path d="M559.84,146.23a1.61,1.61,0,1,0,1.58,1.61A1.6,1.6,0,0,0,559.84,146.23Zm0,2.42a.81.81,0,1,1,.78-.81A.79.79,0,0,1,559.84,148.65Z" fill="#4c5054"/><path d="M566.88,145.63h-2.32v-3h-7.24v-.77l1.43-2.13h-1.43v-1h-.8l.74-1.08V136h-.8v1.41L555,139.54h1.52v1h.74l-.74,1.09v1h-7.33v3h-2.31V153h2.31v3h15.37v-3h2.32Zm-19.2,6.61v-5.81h1.51v5.81Zm16.08,3H550V143.47h13.77V155.2Zm2.32-3h-1.52v-5.81h1.52Z" fill="#4c5054"/><rect x="553.96" y="151.38" width="6.17" height="0.8" fill="#4c5054"/><rect x="502.38" y="34.5" width="109" height="83" fill="#ebf0f2"/><path d="M610.88,35v82h-108V35h108m1-1h-110v84h110V34Z" fill="#4c5054"/><text transform="translate(541.3 74)" font-size="11" fill="#4c5054" font-family="Arial-BoldMT, Arial" font-weight="700">Agent</text><rect x="509.88" y="85" width="94" height="24" fill="#f63"/><text transform="translate(520.74 100)" font-size="11" fill="#fff" font-family="Arial-BoldMT, Arial" font-weight="700">Burp Scanner</text><path d="M555.84,53.84a1.58,1.58,0,1,0-1.58,1.61A1.6,1.6,0,0,0,555.84,53.84Zm-2.36,0a.78.78,0,1,1,.78.81A.79.79,0,0,1,553.48,53.84Z" fill="#4c5054"/><path d="M559.84,52.23a1.61,1.61,0,1,0,1.58,1.61A1.6,1.6,0,0,0,559.84,52.23Zm0,2.42a.81.81,0,1,1,.78-.81A.79.79,0,0,1,559.84,54.65Z" fill="#4c5054"/><path d="M566.88,51.63h-2.32v-3h-7.24V47.9l1.43-2.13h-1.43v-1h-.8l.74-1.08V42h-.8v1.41L555,45.54h1.52v1h.74l-.74,1.09v1h-7.33v3h-2.31V59h2.31v3h15.37V59h2.32Zm-19.2,6.61V52.43h1.51v5.81Zm16.08,3H550V49.47h13.77V61.2Zm2.32-3h-1.52V52.43h1.52Z" fill="#4c5054"/><rect x="553.96" y="57.38" width="6.17" height="0.8" fill="#4c5054"/><rect x="677.44" y="128.5" width="109" height="83" fill="#ebf0f2"/><path d="M785.94,129v82h-108V129h108m1-1h-110v84h110V128Z" fill="#4c5054"/><text transform="translate(716.36 168)" font-size="11" fill="#4c5054" font-family="Arial-BoldMT, Arial" font-weight="700">Agent</text><rect x="684.94" y="179" width="94" height="24" fill="#f63"/><text transform="translate(695.8 194)" font-size="11" fill="#fff" font-family="Arial-BoldMT, Arial" font-weight="700">Burp Scanner</text><path d="M730.9,147.84a1.58,1.58,0,1,0-1.58,1.61A1.6,1.6,0,0,0,730.9,147.84Zm-2.36,0a.78.78,0,1,1,.78.81A.79.79,0,0,1,728.54,147.84Z" fill="#4c5054"/><path d="M734.9,146.23a1.61,1.61,0,1,0,1.58,1.61A1.6,1.6,0,0,0,734.9,146.23Zm0,2.42a.81.81,0,1,1,.78-.81A.79.79,0,0,1,734.9,148.65Z" fill="#4c5054"/><path d="M741.94,145.63h-2.31v-3h-7.24v-.77l1.43-2.13h-1.43v-1h-.81l.74-1.08V136h-.8v1.41l-1.46,2.13h1.53v1h.73l-.73,1.09v1h-7.34v3h-2.31V153h2.31v3h15.38v-3h2.31Zm-19.2,6.61v-5.81h1.51v5.81Zm16.09,3H725.05V143.47h13.78V155.2Zm2.31-3h-1.51v-5.81h1.51Z" fill="#4c5054"/><rect x="729.02" y="151.38" width="6.17" height="0.8" fill="#4c5054"/><rect x="677.44" y="34.5" width="109" height="83" fill="#ebf0f2"/><path d="M785.94,35v82h-108V35h108m1-1h-110v84h110V34Z" fill="#4c5054"/><text transform="translate(716.36 74)" font-size="11" fill="#4c5054" font-family="Arial-BoldMT, Arial" font-weight="700">Agent</text><rect x="684.94" y="85" width="94" height="24" fill="#f63"/><text transform="translate(695.8 100)" font-size="11" fill="#fff" font-family="Arial-BoldMT, Arial" font-weight="700">Burp Scanner</text><path d="M730.9,53.84a1.58,1.58,0,1,0-1.58,1.61A1.6,1.6,0,0,0,730.9,53.84Zm-2.36,0a.78.78,0,1,1,.78.81A.79.79,0,0,1,728.54,53.84Z" fill="#4c5054"/><path d="M734.9,52.23a1.61,1.61,0,1,0,1.58,1.61A1.6,1.6,0,0,0,734.9,52.23Zm0,2.42a.81.81,0,1,1,.78-.81A.79.79,0,0,1,734.9,54.65Z" fill="#4c5054"/><path d="M741.94,51.63h-2.31v-3h-7.24V47.9l1.43-2.13h-1.43v-1h-.81l.74-1.08V42h-.8v1.41l-1.46,2.13h1.53v1h.73l-.73,1.09v1h-7.34v3h-2.31V59h2.31v3h15.38V59h2.31Zm-19.2,6.61V52.43h1.51v5.81Zm16.09,3H725.05V49.47h13.78V61.2Zm2.31-3h-1.51V52.43h1.51Z" fill="#4c5054"/><rect x="729.02" y="57.38" width="6.17" height="0.8" fill="#4c5054"/><rect x="24" y="82.25" width="109" height="79" transform="translate(-0.16 0.1) rotate(-0.08)" fill="#d0f1f7"/><path d="M132.45,82.68l.1,78-108,.14-.1-78,108-.14m1-1-110,.14.1,80,110-.14-.1-80Z" fill="#0071bc"/><text transform="matrix(1, 0, 0, 1, 54, 139.42)" font-size="11" fill="#0071bc" font-family="Arial-BoldMT, Arial" font-weight="700">Database</text><path d="M89.62,118.32c0,2.22,0,1-.07,2.51,0,1.74-5,3.16-11.08,3.17s-11.09-1.4-11.09-3.14c0-.76.07-1.87.07-2.51" fill="#d0f1f7"/><path d="M78.47,124.23c-5.57,0-11.33-1.25-11.33-3.37,0-.4,0-.89,0-1.37s0-.84,0-1.14h.48c0,.31,0,.72,0,1.16s0,1,0,1.35c0,1.41,4.37,2.91,10.86,2.9s10.81-1.53,10.84-2.93c0-.64,0-.79,0-.93s0-.3,0-1.58h.47a14.78,14.78,0,0,1,0,1.63c0,.12,0,.27,0,.89C89.75,122.48,85.77,124.22,78.47,124.23Z" fill="#0071bc"/><ellipse cx="78.5" cy="118.33" rx="11.09" ry="3.15" transform="translate(-0.16 0.1) rotate(-0.08)" fill="#d0f1f7"/><path d="M78.5,121.72c-5.56,0-11.32-1.25-11.33-3.37S72.93,115,78.5,115s11.32,1.25,11.33,3.37S84.07,121.71,78.5,121.72Zm0-6.3c-6.49,0-10.85,1.52-10.85,2.93s4.36,2.9,10.85,2.9,10.85-1.52,10.85-2.93S85,115.41,78.5,115.42Z" fill="#0071bc"/><path d="M89.62,113.27c0,2.22,0,1-.07,2.51,0,1.74-5,3.16-11.08,3.16s-11.09-1.39-11.09-3.13c0-.76.07-1.87.07-2.51" fill="#d0f1f7"/><path d="M78.47,119.18c-5.57,0-11.33-1.25-11.33-3.37,0-.4,0-.89,0-1.37s0-.84,0-1.14h.48c0,.31,0,.72,0,1.16s0,1,0,1.35c0,1.4,4.37,2.9,10.86,2.9s10.81-1.53,10.84-2.94c0-.63,0-.78,0-.92s0-.3,0-1.58h.47a14.82,14.82,0,0,1,0,1.63c0,.12,0,.27,0,.89C89.75,117.43,85.77,119.17,78.47,119.18Z" fill="#0071bc"/><ellipse cx="78.5" cy="113.28" rx="11.09" ry="3.15" transform="translate(-0.15 0.1) rotate(-0.08)" fill="#d0f1f7"/><path d="M78.5,116.67c-5.56,0-11.32-1.25-11.33-3.37s5.76-3.4,11.33-3.41,11.32,1.25,11.33,3.38S84.07,116.66,78.5,116.67Zm0-6.3c-6.49,0-10.85,1.52-10.85,2.93s4.36,2.9,10.85,2.89,10.85-1.52,10.85-2.92-4.36-2.91-10.85-2.9Z" fill="#0071bc"/><path d="M89.62,108.06c0,2.22,0,1-.07,2.51,0,1.74-5,3.15-11.08,3.16s-11.09-1.39-11.09-3.13c0-.76.07-1.87.07-2.51" fill="#d0f1f7"/><path d="M78.47,114c-5.57,0-11.33-1.25-11.33-3.37,0-.4,0-.89,0-1.37s0-.84,0-1.14h.48c0,.31,0,.71,0,1.16s0,1,0,1.35c0,1.4,4.37,2.9,10.86,2.89s10.81-1.52,10.84-2.93c0-.63,0-.78,0-.92s0-.3,0-1.58h.47a14.82,14.82,0,0,1,0,1.63c0,.12,0,.27,0,.88C89.75,112.21,85.77,114,78.47,114Z" fill="#0071bc"/><ellipse cx="78.5" cy="108.07" rx="11.09" ry="3.15" transform="translate(-0.14 0.1) rotate(-0.08)" fill="#d0f1f7"/><path d="M78.5,111.46c-5.56,0-11.32-1.26-11.33-3.37s5.76-3.4,11.33-3.41,11.32,1.26,11.33,3.38S84.07,111.45,78.5,111.46Zm0-6.3c-6.49,0-10.85,1.52-10.85,2.93S72,111,78.5,111s10.85-1.52,10.85-2.92S85,105.15,78.5,105.16Z" fill="#0071bc"/><path d="M89.62,102.6c0,2.22,0,1-.07,2.51,0,1.74-5,3.16-11.08,3.16s-11.09-1.39-11.09-3.13c0-.76.07-1.87.07-2.51" fill="#d0f1f7"/><path d="M78.47,108.51c-5.57,0-11.33-1.25-11.33-3.37,0-.4,0-.89,0-1.36s0-.85,0-1.15h.48c0,.31,0,.71,0,1.16s0,.95,0,1.35c0,1.41,4.37,2.9,10.86,2.9s10.81-1.53,10.84-2.93c0-.64,0-.79,0-.93s0-.3,0-1.58h.47a14.78,14.78,0,0,1,0,1.63c0,.12,0,.27,0,.89C89.75,106.76,85.77,108.5,78.47,108.51Z" fill="#0071bc"/><ellipse cx="78.5" cy="102.61" rx="11.09" ry="3.15" transform="matrix(1, 0, 0, 1, -0.14, 0.1)" fill="#d0f1f7"/><path d="M78.5,106c-5.56,0-11.32-1.25-11.33-3.37s5.76-3.4,11.33-3.41,11.32,1.26,11.33,3.38S84.07,106,78.5,106Zm0-6.3c-6.49,0-10.85,1.52-10.85,2.93s4.36,2.9,10.85,2.89,10.85-1.52,10.85-2.92S85,99.69,78.5,99.7Z" fill="#0071bc"/><path d="M627.56,20h-6v1h6V20Zm-12,0h-6v1h6V20Zm-12,0h-6v1h6V20Zm-12,0h-6v1h6V20Zm-12,0h-6v1h6V20Zm-12,0h-6v1h6V20Zm-12,0h-6v1h6V20Zm-12,0h-6v1h6V20Zm-12,0h-6v1h6V20Zm-12,0h-6v1h6V20Zm-12,0h-6v1h6V20Zm-12,0h-6v1h6V20Zm-12,0h-6v1h6V20Zm-12,0h-6v1h6V20Zm-12,0h-6v1h6V20Zm-12,0h-6v1h6V20Zm-12,0h-6v1h6V20Zm-12,0h-6v1h6V20Zm-12,0h-6v1h6V20Zm-12,0h-6v1h6V20Zm-12,0h-6v1h6V20Zm-12,0h-6v1h6V20Zm-11,0h-1v6h1V20Zm0,12h-1v6h1V32Zm0,12h-1v6h1V44Zm0,12h-1v6h1V56Zm0,12h-1v6h1V68Zm0,12h-1v6h1V80Zm0,12h-1v6h1V92Zm0,12h-1v6h1v-6Zm0,12h-1v6h1v-6Zm0,12h-1v6h1v-6Zm0,12h-1v6h1v-6Zm0,12h-1v6h1v-6Zm0,12h-1v6h1v-6Zm0,12h-1v6h1v-6Zm0,12h-1v6h1v-6Zm0,12h-1v6h1v-6Zm0,12h-1v6h1v-6Zm0,12h-1v6h1v-6Zm11,5h-6v1h6v-1Zm12,0h-6v1h6v-1Zm12,0h-6v1h6v-1Zm12,0h-6v1h6v-1Zm12,0h-6v1h6v-1Zm12,0h-6v1h6v-1Zm12,0h-6v1h6v-1Zm12,0h-6v1h6v-1Zm12,0h-6v1h6v-1Zm12,0h-6v1h6v-1Zm12,0h-6v1h6v-1Zm12,0h-6v1h6v-1Zm12,0h-6v1h6v-1Zm12,0h-6v1h6v-1Zm12,0h-6v1h6v-1Zm12,0h-6v1h6v-1Zm12,0h-6v1h6v-1Zm12,0h-6v1h6v-1Zm12,0h-6v1h6v-1Zm12,0h-6v1h6v-1Zm12,0h-6v1h6v-1Zm12,0h-6v1h6v-1Zm0-11h-1v6h1v-6Zm0-12h-1v6h1v-6Zm0-12h-1v6h1v-6Zm0-12h-1v6h1v-6Zm0-12h-1v6h1v-6Zm0-12h-1v6h1v-6Zm0-12h-1v6h1v-6Zm0-12h-1v6h1v-6Zm0-12h-1v6h1v-6Zm0-12h-1v6h1v-6Zm0-12h-1v6h1V98Zm0-12h-1v6h1V86Zm0-12h-1v6h1V74Zm0-12h-1v6h1V62Zm0-12h-1v6h1V50Zm0-12h-1v6h1V38Zm0-12h-1v6h1V26Z" fill="#4c5054"/><path d="M152.36,19.9h-6v1h6v-1Zm-12,0h-6v1h6v-1Zm-12,0h-6v1h6v-1Zm-12,0h-6v1h6V20Zm-12,0h-6v1h6V20Zm-12,0h-6v1h6V20Zm-12,0h-6v1h6V20Zm-12,0h-6v1h6V20Zm-12,0h-6v1h6V20Zm-12,0h-6v1h6V20Zm-12,0h-6v1h6v-1Zm-12,0h-6v1h6v-1Zm-12,0h-4v1h0v1h1v-1h3v-1Zm-3,8h-1v6h1v-6Zm0,12h-1v6h1v-6Zm0,12h-1s0,1.89,0,3.55h0v2.41h1v-6Zm0,12h-1v3.54h0v.07h0v0h0v.09h0v0h0v0h0c0,1.15,0,2.11,0,2.11h1v-6Zm0,12h-1v6h1v-6Zm0,12h-1v6h1v-6Zm0,12h-1v6h1v-6Zm0,12h-1s0,1.88,0,3.53h0v0h0v0h0v2.41h1v-6Zm0,12h-1v3.61h0v.12h0v0h0v0h0v.15h0v.07h0c0,1.05,0,1.89,0,1.89h1v-6Zm0,12h-1v6h1v-6Zm0,12h-1v6h1v-6Zm0,12h-1v6h1v-6Zm0,12h-1s0,1.88,0,3.53h0v0h0v0h0v2.41h1v-6Zm0,12h-1v3.61h0v.14h0v0h0v0h0v0h0v.06h0v.07h0v0h0v0h0c0,1.05,0,1.89,0,1.89h1v-6Zm0,12h-1v6h1v-6Zm0,12h-1v6h1v-6Zm0,12h-1v6h1v-6Zm7,9h-6v1h6v-1Zm12,0h-6v1h6v-1Zm12,0h-6v1h6v-1Zm12,0h-6v1h6v-1Zm12,0h-6v1h6v-1Zm12,0h-6v1h6v-1Zm12,0h-6v1h6v-1Zm12,0h-6v1h6v-1Zm12,0h-6v1h6v-1Zm12,0h-6v1h6v-1Zm12,0h-6v1h6v-1Zm12,0h-6v1h6v-1Zm8-3h-1v3h-1v1h2v0h0v-.1h0v-.09h0v-.11h0v-.06h0v0h0v0h0v0h0v0h0v0h0v0h0v-.07h0v0h0V229h0v-.07h0v-3Zm0,3.93Zm0,0Zm0,0Zm0,0Zm0,0Zm0,0v0h0v0Zm0-16h-1v6h1v-6Zm0-12h-1v6h1v-6Zm0-12h-1v6h1v-1.66h0v0h0v0h0V189.9Zm0-12h-1v6h1v-2.51h0v0h0V177.9Zm0-12h-1v6h1v-6Zm0-12h-1v6h1v-6Zm0-12h-1v6h1v-6Zm0-12h-1v6h1v-1.66h0v0h0V129.9Zm0-12h-1v6h1v-2.51h0v0h0V117.9Zm0-12h-1v6h1v-6Zm0-12h-1v6h1v-6Zm0-12h-1v6h1v-6Zm0-12h-1v6h1V74.24h0v0h0v0h0v0h0V69.9Zm0-12h-1v6h1V61.39h0v0h0V57.9Zm0-12h-1v6h1v-6Zm0-12h-1v6h1v-6Zm0-12h-1v6h1v-6Z" fill="#4c5054"/><path d="M330.74,19.9h-6v1h6v-1Zm-12,0h-6v1h6v-1Zm-12,0h-6v1h6v-1Zm-12,0h-6v1h6V20Zm-12,0h-6v1h6V20Zm-12,0h-6v1h6V20Zm-12,0h-6v1h6V20Zm-12,0h-6v1h6V20Zm-12,0h-6v1h6V20Zm-12,0h-6v1h6V20Zm-12,0h-6v1h6v-1Zm-12,0h-6v1h6v-1Zm-12,0h-4v1h0v1h1v-1h3v-1Zm-3,8h-1v6h1v-6Zm0,12h-1v6h1v-6Zm0,12h-1v6h1v-6Zm0,12h-1v6h1v-6Zm0,12h-1v6h1v-6Zm0,12h-1v0h0v0c0,1.17,0,5.73,0,5.73h1v-6Zm0,12h-1v3.48h0v2.49h1v-6Zm0,12h-1v2.23h0v.09h0v.06h0v0h0v0h0v0h0v0h0v3.41h1v-6Zm0,12h-1v2.83h0v3.16h1v-6Zm0,12h-1v4.53h0v.1h0v0h0v.08h0v0h0v0h0v0h0v1.1h1v-6Zm0,12h-1v6h1v-6Zm0,12h-1v6h1v-6Zm0,12h-1v6h1v-6Zm0,12h-1v6h1v-6Zm0,12h-1v6h1v-6Zm0,12h-1v6h1v-6Zm0,12h-1v6h1v-6Zm7,9h-6v1h6v-1Zm12,0h-6v1h6v-1Zm12,0h-6v1h6v-1Zm12,0h-6v1h6v-1Zm12,0h-6v1h6v-1Zm12,0h-6v1h6v-1Zm12,0h-6v1h6v-1Zm12,0h-6v1h6v-1Zm12,0h-6v1h6v-1Zm12,0h-6v1h6v-1Zm12,0h-6v1h6v-1Zm12,0h-6v1h6v-1Zm8-3h-1v3h-1v1h2v0h0v-.11h0v0h0v0h0v0h0v-.06h0v0h0v0h0v-.07h0v-.06h0v0h0v-.05h0v-.14h0V225.9Zm0,3.94Zm0,0Zm0,0Zm0,0Zm0,0v0h0v0Zm0-16h-1v6h1v-6Zm0-12h-1v6h1v-6Zm0-12h-1v6h1v-2.07h0v-.06h0v0h0v0h0v0h0v0h0v0h0v-.06h0V189.9Zm0-12h-1v6h1v-2.42h0v0h0v0h0V177.9Zm0-12h-1v6h1v-6Zm0-12h-1v6h1v-6Zm0-12h-1v6h1v-6Zm0-12h-1v6h1v-2h0v0h0v-.05h0v0h0v0h0v-.06h0v-.06h0v-.07h0V129.9Zm0-12h-1v6h1v-2.42h0v0h0v0h0V117.9Zm0-12h-1v6h1v-6Zm0-12h-1v6h1v-6Zm0-12h-1v6h1v-6Zm0-12h-1v6h1v-2h0v0h0v0h0v0h0v0h0V73.6h0v-.07h0v-.07h0V69.9Zm0-12h-1v6h1V61.48h0v0h0V57.9Zm0-12h-1v6h1v-6Zm0-12h-1v6h1v-6Zm0-12h-1v6h1v-6Z" fill="#4c5054"/><path d="M805.8,19.9h-6v1h6v-1Zm-12,0h-6v1h6v-1Zm-12,0h-6v1h6v-1Zm-12,0h-6v1h6V20Zm-12,0h-6v1h6V20Zm-12,0h-6v1h6V20Zm-12,0h-6v1h6V20Zm-12,0h-6v1h6V20Zm-12,0h-6v1h6V20Zm-12,0h-6v1h6V20Zm-12,0h-6v1h6v-1Zm-12,0h-6v1h6v-1Zm-12,0h-4v1h0v1h1v-1h3v-1Zm-3,8h-1v6h1v-6Zm0,12h-1v6h1v-6Zm0,12h-1s0,1.86,0,3.51h0v0h0V58.1h1v-6Zm0,12h-1v3.77h0v0h0v0h0v0h0v.12h0v0c0,1.05,0,1.89,0,1.89h1v-6Zm0,12h-1v6h1v-6Zm0,12h-1v6h1v-6Zm0,12h-1v6h1v-6Zm0,12h-1s0,1.87,0,3.52h0v2.46h1v-6Zm0,12h-1v3.78h0v0h0v0h0v0h0v.12h0v0h0v0c0,1,0,1.88,0,1.88h1v-6Zm0,12h-1v6h1v-6Zm0,12h-1v6h1v-6Zm0,12h-1v6h1v-6Zm0,12h-1s0,1.85,0,3.5h0v0h0v2.46h1v-6Zm0,12h-1v3.78h0V188h0v.12h0v0h0v0h0v0h0v1.86h1v-6Zm0,12h-1v6h1v-6Zm0,12h-1v6h1v-6Zm0,12h-1v6h1v-6Zm7,9h-6v1h6v-1Zm12,0h-6v1h6v-1Zm12,0h-6v1h6v-1Zm12,0h-6v1h6v-1Zm12,0h-6v1h6v-1Zm12,0h-6v1h6v-1Zm12,0h-6v1h6v-1Zm12,0h-6v1h6v-1Zm12,0h-6v1h6v-1Zm12,0h-6v1h6v-1Zm12,0h-6v1h6v-1Zm12,0h-6v1h6v-1Zm8-3h-1v3h-1v1h2v0h0v-.11h0v-.09h0v-.11h0v-.06h0v0h0v0h0v0h0v-.05h0v0h0v0h0v-.07h0v0h0v0h0v0h0v-.07h0v-3Zm0,3.94Zm0,0Zm0,0Zm0,0Zm0,0v0h0v0Zm0-16h-1v6h1v-6Zm0-12h-1v6h1v-6Zm0-12h-1v6h1v-6Zm0-12h-1v6h1v-6Zm0-12h-1v6h1v0h0v0h0c0-.73,0-5.92,0-5.92Zm0-12h-1v6h1s0-1.89,0-3.55h0V153.9Zm0-12h-1v6h1v-2h0v0h0v-.05h0v0h0v0h0v0h0v-.07h0v-.07h0v-.07h0c0-1.66,0-3.56,0-3.56Zm0-12h-1v6h1V133h0V133h0V129.9Zm0-12h-1v6h1v-4.26h0v0h0v-.11h0v-.13h0V117.9Zm0-12h-1v6h1v-2.23h0v0h0V105.9Zm0-12h-1v6h1v-6Zm0-12h-1v6h1v-6Zm0-12h-1v6h1v-6Zm0-12h-1v6h1v-6Zm0-12h-1v6h1v-6Zm0-12h-1v6h1v-6Zm0-12h-1v6h1V24.12h0V21.9Z" fill="#4c5054"/></svg>